<?xml version="1.0" encoding="utf-8"?>
<!-- Generator: Adobe Illustrator 15.0.0, SVG Export Plug-In . SVG Version: 6.00 Build 0)  -->
<!DOCTYPE svg PUBLIC "-//W3C//DTD SVG 1.1//EN" "http://www.w3.org/Graphics/SVG/1.1/DTD/svg11.dtd">
<svg version="1.1" id="Layer_1" xmlns="http://www.w3.org/2000/svg" xmlns:xlink="http://www.w3.org/1999/xlink" x="0px" y="0px"
	 width="612px" height="792px" viewBox="0 0 612 792" enable-background="new 0 0 612 792" xml:space="preserve">
<g>
	<g>
		<path fill="#231F20" d="M377.189,280.826l-71.49-13.501l-71.909,13.501h-15.74v141.257c0,42.319,30.351,79.624,81.14,99.776
			l6.29,2.562l6.25-2.545c50.841-20.16,81.19-57.469,81.19-99.8V280.826H377.189z M387.1,422.077
			c0,39.856-28.979,75.142-77.52,94.39l-4.101,1.67l-4.09-1.667c-48.54-19.258-77.52-54.544-77.52-94.387V286.646h10.54
			l71.289-13.364l70.86,13.364h10.54V422.077z"/>
		<path fill="#FFDD00" d="M305.699,273.282l-71.289,13.364h-10.54v135.437c0,39.843,28.979,75.129,77.52,94.387l4.09,1.667
			l4.101-1.67c48.54-19.248,77.52-54.533,77.52-94.39V286.646h-10.54L305.699,273.282z M376.56,422.077
			c0,41.481-34.81,70.291-70.859,84.59l-0.421,0.004c-36.76-14.587-70.869-43.601-70.869-84.59v-73.42H376.56V422.077z
			 M376.56,342.161H234.41V297.19l71.29-13.364l70.859,13.364V342.161z"/>
		<path fill="#00502F" d="M234.41,422.081c0,40.989,34.109,70.003,70.869,84.59l0.421-0.004
			c36.05-14.299,70.859-43.108,70.859-84.59v-73.416H234.41V422.081z"/>
		<polygon fill="#00502F" points="234.41,297.19 234.41,342.161 376.56,342.161 376.56,297.19 305.7,283.826 		"/>
	</g>
	<g>
		<path fill="#FFFFFF" d="M246.35,308.116c0-0.486-0.109-0.85-0.479-1.133l-1.61-1.172c-0.109-0.123-0.38-0.243-0.38-0.365
			c0-0.121,0.11-0.242,0.32-0.242h8.43c0.22,0,0.32,0.121,0.32,0.242c0,0.122-0.261,0.242-0.37,0.365l-1.61,1.172
			c-0.38,0.283-0.489,0.647-0.489,1.133v25.399h2.149c0.65,0,1.181-0.122,1.4-0.607l3.319-7.846c0.11-0.162,0.11-0.283,0.33-0.283
			c0.16,0,0.26,0.121,0.26,0.283v9.909c0,0.364-0.159,0.566-0.59,0.566H244.2c-0.21,0-0.32-0.121-0.32-0.242
			c0-0.122,0.271-0.203,0.38-0.364l1.61-1.173c0.37-0.283,0.479-0.648,0.479-1.133V308.116"/>
		<path fill="#FFFFFF" d="M276.54,320.739c0.19,0,0.29,0.037,0.29,0.184c0,0.074-0.1,0.258-0.29,0.331l-1.57,1.105
			c0,5.485-0.68,7.914-2.44,9.535c0.24,0.368,0.541,0.662,1.07,0.662c0.881,0,1.811-0.773,2.15-1.214
			c0.15-0.185,0.439-0.185,0.439,0.073c0,1.141-1.02,2.909-3.51,2.909c-1.08,0-1.91-0.295-2.54-0.774
			c-0.689,0.369-1.86,0.774-3.43,0.774c-4.88,0-7.71-2.651-7.71-6.48c0-3.46,1.75-5.522,3.81-7.546l0.931-0.921l-0.49-1.472
			c-0.54-1.583-1.13-3.755-1.13-6.185c0-2.871,2.1-5.007,4.989-5.007c2.591,0,4.15,1.583,4.15,4.16c0,3.534-2.25,6.258-3.52,7.658
			l-0.631,0.699l0.431,1.288c0.979,2.908,2.399,6.958,3.569,9.241c0.98-1.104,1.86-6.7,0.2-7.73l-1.47-0.81
			c-0.189-0.111-0.34-0.184-0.34-0.295c0-0.11,0.15-0.184,0.34-0.184H276.54 M264.609,322.028c-1.359,1.178-2.149,2.945-2.149,5.301
			c0,3.239,2.11,5.227,4.25,5.227c0.88,0,1.62-0.22,2.06-0.589c-1.319-2.134-2.74-5.706-3.569-8.172L264.609,322.028z
			 M266.76,316.322c1.13-1.178,2.1-3.277,2.1-5.301c0-1.326-0.289-2.541-1.8-2.541c-2.3,0-2.64,2.909-1.569,6.038l0.789,2.319
			L266.76,316.322z"/>
		<path fill="#FFFFFF" d="M277.89,308.116c0-0.486-0.16-0.809-0.49-1.133l-1.34-1.172c-0.11-0.123-0.37-0.243-0.37-0.406
			c0-0.08,0.101-0.201,0.321-0.201h6.44c0.379,0,0.539,0.283,0.639,0.687l4.939,17.392h0.11v-15.167c0-0.486-0.11-0.809-0.479-1.093
			l-1.511-1.212c-0.1-0.123-0.37-0.243-0.37-0.406c0-0.08,0.101-0.201,0.32-0.201h7.08c0.22,0,0.33,0.121,0.33,0.201
			c0,0.163-0.22,0.283-0.38,0.406l-1.34,1.172c-0.32,0.324-0.48,0.647-0.48,1.133v26.976c0,0.283-0.17,0.445-0.54,0.445h-2.26
			c-0.48,0-0.91-0.404-1.07-1.011l-6.279-22.042h-0.109v20.141c0,0.485,0.159,0.81,0.539,1.092l1.45,1.214
			c0.161,0.121,0.38,0.242,0.38,0.404c0,0.081-0.11,0.202-0.33,0.202h-7.079c-0.221,0-0.321-0.121-0.321-0.202
			c0-0.162,0.26-0.283,0.37-0.404l1.34-1.173c0.33-0.323,0.49-0.648,0.49-1.133V308.116"/>
		<path fill="#FFFFFF" d="M310.811,315.679c0,0.121-0.101,0.202-0.32,0.202c-0.16,0-0.271-0.121-0.32-0.283
			c-0.859-3.277-3.439-8.372-5.91-8.372c-1.34,0-1.439,0.849-1.439,1.9c0,1.982,0.689,3.964,4.67,10.314
			c3.75,5.986,4.18,7.321,4.18,10.516c0,4.287-2.95,5.581-4.939,5.581c-1.45,0-2.36-0.445-3-0.768
			c-0.591-0.283-0.91-0.405-1.08-0.405c-0.211,0-0.641,0.283-1.711,0.89c-0.22,0.121-0.43,0.283-0.649,0.283
			c-0.21,0-0.271-0.081-0.271-0.202v-10.192c0-0.122,0.061-0.283,0.271-0.283c0.16,0,0.271,0.161,0.319,0.283
			c0.971,3.235,2.631,8.372,5.801,8.372c1.02,0,1.56-0.849,1.56-2.103c0-2.71-1.61-5.662-4.67-10.516
			c-2.899-4.61-3.97-7.684-3.97-10.637c0-3.842,2.2-5.055,4.93-5.055c1.021,0,2.2,0.444,3.01,0.93
			c0.271,0.121,0.59,0.242,0.811,0.242c0.21,0,0.75-0.283,1.23-0.647c0.479-0.324,0.81-0.525,1.129-0.525
			c0.271,0,0.371,0.201,0.371,0.444V315.679"/>
		<path fill="#FFFFFF" d="M318.6,307.145h-1.99c-0.319,0-0.479,0.202-0.59,0.445l-2.789,8.048c-0.061,0.162-0.221,0.243-0.431,0.243
			c-0.22,0-0.27-0.081-0.27-0.283v-10.233c0-0.081,0.109-0.161,0.27-0.161h15.73c0.159,0,0.26,0.08,0.26,0.161v10.233
			c0,0.202-0.05,0.283-0.26,0.283c-0.22,0-0.38-0.081-0.431-0.243l-2.789-8.048c-0.11-0.243-0.271-0.445-0.601-0.445h-1.979v25.48
			c0,0.485,0.05,0.85,0.43,1.133l1.609,1.173c0.16,0.121,0.37,0.242,0.37,0.364c0,0.121-0.05,0.242-0.319,0.242h-8.32
			c-0.27,0-0.32-0.121-0.32-0.242c0-0.122,0.21-0.243,0.381-0.364l1.609-1.173c0.37-0.283,0.43-0.648,0.43-1.133V307.145"/>
		<path fill="#FFFFFF" d="M336.01,319.076h1.19c0.26,0,0.479-0.08,0.59-0.283l1.869-2.831c0.11-0.162,0.171-0.243,0.331-0.243
			s0.21,0.081,0.21,0.243v8.574c0,0.121-0.05,0.202-0.21,0.202c-0.221,0-0.271-0.121-0.381-0.282l-1.819-2.953
			c-0.11-0.202-0.33-0.283-0.59-0.283h-1.19v12.295h3.061c0.699,0,1.239-0.243,1.449-0.728l2.9-7.766
			c0.061-0.161,0.22-0.242,0.38-0.242s0.271,0.121,0.271,0.242v10.152c0,0.202-0.17,0.364-0.431,0.364H329.73
			c-0.211,0-0.32-0.121-0.32-0.242c0-0.122,0.27-0.203,0.38-0.364l1.61-1.173c0.369-0.283,0.479-0.648,0.479-1.133v-24.509
			c0-0.486-0.11-0.85-0.479-1.133l-1.61-1.172c-0.11-0.123-0.38-0.243-0.38-0.365c0-0.121,0.109-0.242,0.32-0.242h13.909
			c0.21,0,0.431,0.161,0.431,0.364v10.07c0,0.162-0.11,0.243-0.271,0.243c-0.22,0-0.38-0.121-0.43-0.283l-2.9-7.604
			c-0.22-0.526-0.7-0.768-1.399-0.768h-3.061V319.076"/>
		<path fill="#FFFFFF" d="M351.79,305.204c0.49,0,0.7,0.283,0.76,0.687l3.54,17.513h0.11l3.27-17.513
			c0.05-0.404,0.21-0.687,0.59-0.687h6.71c0.211,0,0.32,0.121,0.32,0.201c0,0.163-0.21,0.283-0.37,0.406l-1.35,1.172
			c-0.32,0.324-0.431,0.647-0.431,1.133v24.509c0,0.485,0.11,0.81,0.431,1.133l1.35,1.173c0.16,0.121,0.37,0.242,0.37,0.404
			c0,0.081-0.109,0.202-0.32,0.202h-7.52c-0.26,0-0.32-0.121-0.32-0.202c0-0.162,0.221-0.283,0.38-0.445l1.13-1.092
			c0.32-0.323,0.37-0.688,0.37-1.173V313.05h-0.1l-4.08,22.164c-0.06,0.202-0.17,0.323-0.43,0.323h-1.19
			c-0.16,0-0.21-0.162-0.26-0.364l-4.35-22.123h-0.11v19.575c0,0.485,0.06,0.85,0.38,1.173l1.12,1.092
			c0.17,0.162,0.38,0.283,0.38,0.445c0,0.081-0.11,0.202-0.32,0.202h-6.6c-0.22,0-0.33-0.121-0.33-0.202
			c0-0.162,0.27-0.283,0.38-0.404l1.34-1.173c0.32-0.323,0.49-0.648,0.49-1.133v-24.509c0-0.486-0.17-0.809-0.49-1.133l-1.34-1.172
			c-0.11-0.123-0.38-0.243-0.38-0.406c0-0.08,0.11-0.201,0.33-0.201H351.79"/>
	</g>
	<g>
		<path fill="#FFFFFF" d="M249.2,354.439h2.229l2.771,6.076h-2.12l-0.4-0.989h-2.74l-0.399,0.989h-2.11L249.2,354.439
			 M251.24,358.43l-0.931-2.405l-0.93,2.405H251.24z"/>
		<path fill="#FFFFFF" d="M271.11,360.061c-0.641,0.356-1.431,0.534-2.271,0.534c-2.529,0-3.41-1.701-3.41-3.091
			c0-1.773,1.29-3.145,3.521-3.145c0.8,0,1.51,0.143,2.1,0.411v1.772c-0.61-0.392-1.149-0.561-1.76-0.561
			c-1.07,0-1.729,0.57-1.729,1.497c0,0.908,0.68,1.496,1.75,1.496c0.609,0,1.109-0.151,1.8-0.535V360.061"/>
		<path fill="#FFFFFF" d="M285.72,354.439h2.23l2.77,6.076h-2.12l-0.399-0.989h-2.74l-0.4,0.989h-2.109L285.72,354.439
			 M287.76,358.43l-0.93-2.405l-0.93,2.405H287.76z"/>
		<path fill="#FFFFFF" d="M302.689,354.439h3.051c2.35,0,3.289,1.711,3.289,3.119c0,1.38-0.84,2.957-2.909,2.957h-3.431V354.439
			 M305.38,359.072c1.03,0,1.52-0.508,1.52-1.594c0-0.802-0.359-1.595-1.51-1.595h-0.569v3.189H305.38z"/>
		<polyline fill="#FFFFFF" points="321.32,354.439 325.87,354.439 325.87,355.723 323.45,355.723 323.45,356.792 325.67,356.792 
			325.67,358.074 323.45,358.074 323.45,359.232 325.91,359.232 325.91,360.515 321.32,360.515 321.32,354.439 		"/>
		<polyline fill="#FFFFFF" points="340.32,360.515 338.189,360.515 338.189,354.439 340.1,354.439 341.92,356.898 343.74,354.439 
			345.64,354.439 345.64,360.515 343.51,360.515 343.57,357.255 343.55,357.237 341.92,359.464 340.29,357.237 340.27,357.255 
			340.32,360.515 		"/>
		<polyline fill="#FFFFFF" points="359.99,357.807 357.63,354.439 360.17,354.439 361.33,356.453 362.46,354.439 364.55,354.439 
			362.12,357.887 362.12,360.515 359.99,360.515 359.99,357.807 		"/>
	</g>
	<g>
		<path fill="#FFDD00" d="M299.59,415.348c1.41-0.859,2.95-2.228,3.03-4.121c-0.49,0.369-1.12,0.53-1.83,0.438
			c0-0.001-0.01-0.001-0.01-0.002c-0.591-0.079-1.21-0.35-1.71-0.77C298.08,412.296,298.29,414.15,299.59,415.348"/>
		<path fill="#FFDD00" d="M297.4,409.619c-1.021,0.221-1.641,0.702-2.011,1.331c0,0.008,0,0.016,0,0.024
			c-0.08,0.248-0.18,0.475-0.3,0.692c-0.26,0.901-0.2,1.974-0.09,3.003c0.029,0.249,0.05,0.461,0.06,0.639
			c1.061-0.025,2.181-0.684,2.811-1.678c0-0.011,0.02-0.017,0.02-0.027c-0.22-1.08,0.011-2.229,0.73-3.188
			c-0.22-0.295-0.38-0.634-0.46-1.013c-0.66,1.272-1.5,2.425-2.04,3.77c-0.011,0.019-0.021-0.007-0.011-0.016
			c0.461-1.251,1.051-2.615,1.801-3.759c-0.12,0.056-0.25,0.105-0.381,0.151C297.49,409.582,297.449,409.607,297.4,409.619"/>
		<path fill="#FFDD00" d="M322.73,391.378c0.76-0.05,1.279-0.448,1.439-1.101c0.15-0.654-0.1-1.598-1.02-2.117
			c-0.11-0.06-0.17-0.178-0.16-0.3c0.01-0.122,0.09-0.228,0.199-0.271c0.711-0.259,1.25-1.039,1.211-1.737
			c-0.021-0.455-0.301-0.768-0.791-0.924c-0.109,0.239-0.25,0.463-0.43,0.654c-0.29,0.319-0.64,0.523-1.02,0.608
			c0.479,0.656,0.67,1.612,0.41,2.499c-0.11,0.369-0.28,0.681-0.5,0.936C322.54,390.054,322.779,390.712,322.73,391.378"/>
		<path fill="#FFDD00" d="M308.311,410.658c0.479-0.247,0.779-0.703,0.859-1.225c-0.67,0.145-1.4,0.084-2-0.278
			c0,0.547-0.16,1.024-0.46,1.396C307.189,410.883,307.78,410.934,308.311,410.658"/>
		<path fill="#FFDD00" d="M295,415.93c-0.41,0.709-0.93,1.35-1.35,2.059c0,0.014-0.011-0.016,0-0.021
			c0.31-0.717,0.72-1.376,1.129-2.039c-0.02-0.003-0.049,0-0.079-0.002c0-0.001-0.011-0.001-0.011-0.002
			c-0.09-0.011-0.16-0.055-0.209-0.123c-0.061-0.07-0.08-0.16-0.061-0.248c0.02-0.127-0.01-0.462-0.05-0.816
			c-0.05-0.521-0.13-1.221-0.091-1.956c-1.89,1.716-1.93,3.766-1.97,5.937c0,0.272-0.01,0.547-0.02,0.821
			c2.79-0.218,5.09-2.646,5.66-4.993C297.17,415.396,296.06,415.923,295,415.93"/>
		<path fill="#FFDD00" d="M263.35,394.397c-0.619,0.314-1.47,0.355-2.279,0.392c-0.2,0.01-0.391,0.018-0.57,0.03
			c1.02,0.549,2.609,0.9,3.99,0.652c0.66-0.118,1.51-0.425,2.05-1.196c-0.74-0.255-1.42-0.852-1.84-1.406
			C264.53,393.505,264.07,394.035,263.35,394.397"/>
		<path fill="#FFDD00" d="M301.7,414.489c-0.181,0.19-0.391,0.377-0.61,0.559c-0.42,1.271-0.61,2.578-0.98,3.861
			c0,0.021-0.02,0.01-0.01-0.009c0.25-1.217,0.33-2.535,0.801-3.701c-0.36,0.279-0.75,0.553-1.19,0.809
			c-0.06,0.036-0.13,0.049-0.2,0.04c-0.06-0.007-0.109-0.03-0.16-0.069c-0.3-0.248-0.56-0.526-0.77-0.824
			c-0.5,2.115-0.16,4.785,1.199,5.715c2-0.67,3.07-2.188,3.11-4.414c-0.02-0.186-0.02-0.377-0.01-0.571
			c-0.03-0.012-0.06-0.019-0.09-0.03C302.22,415.586,301.85,415.104,301.7,414.489"/>
		<path fill="#FFDD00" d="M310.66,412.991c-0.26,1.194-1.311,1.981-2.381,2.181c-0.069,0.014-0.14,0.02-0.209,0.027
			c0.02,0.029,0.039,0.059,0.05,0.092c0.03,0.014,0.06,0.027,0.09,0.053c0.739,0.742,1.739,0.969,2.6,0.594
			c0.8-0.353,1.261-1.127,1.23-2.072c-0.011-0.117,0.06-0.223,0.159-0.282C311.689,413.588,311.16,413.425,310.66,412.991"/>
		<path fill="#FFDD00" d="M303.45,403.234c-0.61,0.738-1.36,1.311-2.221,1.703c-0.01,0.004,0,0.01,0,0.016
			c-0.149,0.873-0.439,1.654-0.85,2.327c0.83-0.343,1.84-0.625,2.899-0.906C303.359,405.338,303.3,404.264,303.45,403.234"/>
		<path fill="#FFDD00" d="M314.88,406.288c0.45-0.521,0.67-1.384,0.01-2.248c0.13,0.901-0.27,1.756-0.88,2.334
			c-0.18,0.171-0.39,0.323-0.61,0.448C313.93,406.984,314.51,406.721,314.88,406.288"/>
		<path fill="#FFDD00" d="M321.8,396.814c0.271-0.478,0.14-1.072-0.29-1.514c-0.439,0.819-1.27,1.304-2.189,1.264
			c-0.021,0.268-0.09,0.536-0.19,0.804C320.62,397.791,321.49,397.371,321.8,396.814"/>
		<path fill="#FFDD00" d="M277.3,482.621c0.39-1.398,1.22-2.673,2.61-3.198c-0.801-0.538-1.34-1.432-1.53-2.298
			c-0.01-0.044-0.01-0.086-0.021-0.129C277.32,478.404,276.96,480.287,277.3,482.621"/>
		<path fill="#FFDD00" d="M321.04,394.833c0.17-0.413,0.21-0.963-0.08-1.416c-0.47,0.801-1.24,1.307-2.08,1.378
			c0.229,0.356,0.37,0.741,0.42,1.139c0.01,0.002,0.03,0.001,0.04,0.004C320.23,395.983,320.81,395.375,321.04,394.833"/>
		<path fill="#FFDD00" d="M322.02,391.73c0.17-0.511,0.11-1.261-0.43-1.694c-0.25,0.15-0.52,0.258-0.82,0.312
			c0.49,0.626,0.681,1.393,0.54,2.156C321.75,392.341,321.95,391.932,322.02,391.73"/>
		<path fill="#FFDD00" d="M289.57,484.395c1.539-0.722,2.569-2.08,3.189-4.162c-0.5,0.291-1.1,0.463-1.689,0.453
			c-0.311-0.009-0.601-0.072-0.86-0.178C290.46,481.802,290.311,483.268,289.57,484.395"/>
		<path fill="#FFDD00" d="M317.439,400.594c0.721,0.362,1.271,0.104,1.54-0.082c0.49-0.339,0.78-0.933,0.72-1.479
			c-0.049-0.47-0.35-0.835-0.859-1.071c-0.45,0.735-1.16,1.264-1.891,1.423c0.221,0.375,0.32,0.78,0.32,1.183
			C317.32,400.562,317.38,400.566,317.439,400.594"/>
		<path fill="#FFDD00" d="M311.29,409.121c0.62-0.355,0.99-1.165,0.91-1.936c-0.3,0.018-0.601-0.014-0.9-0.123
			c0.05,0.776-0.37,1.512-1.18,1.998c-0.021,0.014-0.04,0.023-0.07,0.037C310.46,409.33,310.89,409.346,311.29,409.121"/>
		<path fill="#FFDD00" d="M314.92,410.37c0.13,1.083-0.44,2.151-1.3,2.743c-0.33,0.232-0.74,0.396-1.181,0.449
			c0.04,0.011,0.07,0.018,0.101,0.039c0.979,0.746,2.03,0.453,2.7-0.064c0.729-0.572,1.25-1.65,0.76-2.766
			c-0.021-0.039-0.01-0.078-0.01-0.119C315.63,410.652,315.27,410.561,314.92,410.37"/>
		<path fill="#FFDD00" d="M316.75,403.682c0.529-0.201,0.93-0.709,1-1.265c0.06-0.472-0.141-0.896-0.55-1.211
			c-0.07,0.306-0.19,0.597-0.341,0.851c-0.359,0.598-0.979,1.111-1.729,1.258C315.66,403.736,316.24,403.876,316.75,403.682"/>
		<path fill="#FFDD00" d="M305.64,412.714c0.66-0.032,1.17-0.536,1.38-1.321c-0.29-0.078-0.56-0.213-0.81-0.406v-0.002
			c-0.04,0.027-0.09,0.059-0.13,0.084c-0.75,0.393-1.66,0.336-2.44-0.09C304.14,412.293,305,412.747,305.64,412.714"/>
		<path fill="#FFDD00" d="M303.12,377.227c0.22,0.097,0.54,0.035,0.69-0.131c0.09-0.096,0.119-0.223,0.079-0.378
			c-0.31,0.093-0.63,0.182-0.95,0.258C302.96,377.09,303.01,377.18,303.12,377.227"/>
		<path fill="#FFDD00" d="M325.99,379.452c0.51,0.044,0.96,0.227,1.33,0.519c0.41-0.964,0.489-1.962,0.209-2.683
			c-0.199-0.502-0.569-0.867-1.09-1.085c-0.01-0.005-0.02-0.015-0.029-0.022c-0.149,0.057-0.301,0.116-0.45,0.176
			C326.89,377.835,326.55,378.554,325.99,379.452"/>
		<path fill="#FFDD00" d="M327.62,383.396c0.45,0.14,0.79,0.408,1.04,0.735c0.7-0.644,0.979-1.596,0.7-2.412
			c-0.23-0.68-0.79-1.115-1.561-1.219c0.09,0.142,0.181,0.292,0.25,0.458C328.38,381.807,328.21,382.708,327.62,383.396"/>
		<path fill="#FFDD00" d="M307.561,434.734c-0.011-0.008-0.03-0.014-0.041-0.021c-0.01,0.01-0.01,0.014-0.01,0.021
			C307.53,434.732,307.54,434.734,307.561,434.734"/>
		<path fill="#FFDD00" d="M298.68,409.001c-0.01,0.004-0.02,0.007-0.02,0.01c0.05,0.048,0.09,0.109,0.1,0.183
			c0.129,0.994,1.17,1.717,2.1,1.844c0.011,0,0.011,0,0.011,0.001c0.42,0.055,1.45,0.065,1.909-1.032
			c0.041-0.1,0.129-0.173,0.24-0.189c0.11-0.018,0.221,0.021,0.29,0.103c0.74,0.853,1.811,0.942,2.47,0.591
			c0.67-0.354,0.91-1.109,0.66-2.07c-0.029-0.145,0.04-0.295,0.17-0.361c0.131-0.066,0.301-0.028,0.391,0.091
			c0.689,0.905,1.96,0.856,2.79,0.353c0.63-0.377,1.149-1.098,0.739-1.986c-0.06-0.137-0.02-0.297,0.101-0.387
			c0.12-0.088,0.29-0.082,0.399,0.021c0.761,0.687,1.86,0.392,2.551-0.255c0.64-0.607,1.09-1.698,0.24-2.773
			c-0.08-0.108-0.091-0.262-0.011-0.375c0.079-0.115,0.23-0.164,0.36-0.121c0.99,0.318,1.779-0.293,2.15-0.914
			c0.409-0.688,0.51-1.694-0.2-2.391c-0.091-0.092-0.12-0.236-0.07-0.357c0.06-0.121,0.19-0.194,0.32-0.183
			c0.78,0.073,1.689-0.567,2.109-1.485c0.2-0.448,0.561-1.605-0.53-2.658c-0.1-0.099-0.129-0.254-0.06-0.379
			c0.07-0.125,0.21-0.187,0.351-0.155c1.039,0.252,1.899-0.436,2.26-1.182c0.359-0.742,0.38-1.82-0.66-2.625
			c-0.11-0.086-0.15-0.233-0.1-0.363c0.05-0.13,0.18-0.211,0.319-0.201c1.37,0.107,1.79-0.829,1.9-1.236
			c0.27-0.937-0.08-2.001-0.79-2.372c-0.141-0.074-0.2-0.242-0.15-0.391c0.061-0.148,0.21-0.232,0.369-0.194
			c0.651,0.161,1.081-0.132,1.331-0.402c0.45-0.489,0.63-1.272,0.431-1.861c-0.091-0.275-0.32-0.624-0.841-0.719
			c-0.149-0.028-0.26-0.157-0.26-0.308c0-0.152,0.101-0.283,0.25-0.312c0.76-0.147,1.05-0.745,1.17-1.087
			c0.22-0.7,0.09-1.556-0.319-1.994c-0.25-0.267-0.57-0.354-0.94-0.261c-0.03,0.008-0.06,0.005-0.08,0.004
			c-2.76,2.408-3.42,5.621-4.229,9.607c-0.32,1.597-0.66,3.249-1.16,5.021c-1.101,3.832-3.561,8.857-7.19,11.475
			c-1.42,1.025-3.57,1.594-5.66,2.145c-1.85,0.486-3.59,0.947-4.479,1.66c-0.051,0.039-0.11,0.055-0.17,0.061
			C299.06,408.734,298.88,408.875,298.68,409.001"/>
		<path fill="#FFDD00" d="M313.08,493.701c-0.27-1.526-0.43-4.049,1.07-5.415c-1.09-0.149-2.07-0.688-2.711-1.46
			C310.66,489.415,311.27,491.951,313.08,493.701"/>
		<path fill="#FFDD00" d="M302.66,378.13c0.64,0.281,1.55,0.122,2.039-0.353c0.36-0.349,0.44-0.821,0.25-1.365
			c-0.149,0.038-0.31,0.082-0.47,0.128c0.11,0.373,0.04,0.723-0.21,0.988c-0.26,0.283-0.689,0.417-1.09,0.364
			c-0.109-0.015-0.21-0.043-0.31-0.085c-0.3-0.132-0.5-0.39-0.561-0.711c-0.11,0.016-0.22,0.025-0.34,0.035
			c0.01,0.085,0.021,0.17,0.03,0.251C302.109,377.799,302.4,378.019,302.66,378.13"/>
		<path fill="#FFDD00" d="M302.08,444.641c0,0.004,0-0.008,0-0.01c2.189-3.031,6.04-6.158,10.029-5.939c0-0.033,0-0.066,0.011-0.1
			c-3.22-0.468-6.21,0.594-8.55,2.916c-0.01,0.008-0.01-0.021,0-0.027c1.85-2.06,5.06-4.025,8-3.713
			c-0.141-0.178-0.28-0.351-0.431-0.514c-1.979-0.35-4.1,0.028-5.75,1.247c0,0.002,0-0.015,0-0.017c1.08-0.896,3.19-2.1,4.88-2.055
			c-0.27-0.225-0.539-0.434-0.83-0.63c-0.93,0.054-1.75,0.19-2.64,0.548c-0.01,0.002,0-0.021,0-0.023
			c0.59-0.344,1.3-0.764,2.021-0.926c-0.03-0.015-0.051-0.03-0.08-0.045c-0.01,0.004-0.021,0.014-0.03,0.012
			c-1.76-0.038-3.47-0.08-5.07,0.826c0,0.002,0-0.01,0-0.012c0.87-0.578,2.171-1.166,3.421-1.375
			c-1.681-0.238-3.181-0.285-4.871,0.2c-1.539,0.446-3.029,1.06-4.569,1.522v-0.006c1.91-0.619,4.11-1.787,6.28-2.224
			c-2.391,0.028-4.791,0.702-6.971,1.659c-0.01,0.005-0.01-0.053,0.01-0.061c1.65-0.852,3.961-1.806,6.2-2.129
			c-3.78-0.123-8.12,1.062-11.56,3.233c-0.48,0.304-1.07,0.735-1.75,1.238c-2.811,2.073-6.93,5.122-9.79,3.403
			c0.771,2.1,3.91,3.332,6.09,3.274c0.17-0.004,0.32,0.129,0.32,0.301c0.01,0.173-0.12,0.319-0.29,0.33
			c-1.67,0.106-2.57,1.858-3.44,3.552c-0.8,1.547-1.61,3.135-3.03,3.244c1.771,1.457,4.061,1.521,6.131,0.092
			c0.119-0.082,0.279-0.074,0.38,0.018c0.11,0.089,0.149,0.242,0.09,0.372c-1.92,4.243,2.93,8.296,5.58,9.593
			c0.149,0.076,0.22,0.26,0.14,0.416c-0.68,1.468-2.31,3.814-4.02,4.27c-0.061,0.018-0.131,0.014-0.19-0.008
			c-0.37-0.137-0.729-0.308-1.08-0.472c-0.46-0.219-0.939-0.444-1.43-0.584c-0.33-0.092-0.81-0.083-1.271-0.075
			c-0.6,0.012-1.16,0.02-1.56-0.156c-0.899-0.402-1.479-1.059-2.04-1.692c-0.66-0.736-1.28-1.433-2.38-1.763
			c-1.08-0.326-1.96-0.301-2.479,0.068c-0.381,0.27-0.591,0.741-0.621,1.396c-0.05,1.414,0.36,1.632,1.271,2.111
			c0.25,0.129,0.53,0.273,0.83,0.457c0.04,0.03,0.08,0.071,0.1,0.116c1.71-0.253,3.921,0.874,4.75,2.499
			c0.021,0.033,0.03,0.066,0.03,0.104c0.03,0.174-0.09,0.36-0.26,0.388c-0.17,0.028-0.33-0.063-0.36-0.235v-0.015
			c-0.76-1.431-2.95-2.464-4.36-2.054c-0.89,0.258-1.3,1.039-1.189,2.267c0.08,0.955,0.32,1.565,0.7,1.817
			c0.33,0.213,0.8,0.209,1.46-0.008c1.21-0.396,1.939,0.043,2.65,0.467c0.689,0.412,1.329,0.801,2.51,0.483
			c0.01-0.003,0.02,0,0.029-0.002c0.021-0.003,0.04-0.004,0.061-0.004c0.02,0.001,0.04,0.001,0.06,0.006
			c0.021,0.005,0.04,0.011,0.05,0.019c0.021,0.008,0.041,0.017,0.061,0.029c0.01,0.006,0.02,0.006,0.02,0.012
			c0.01,0.008,0.021,0.018,0.03,0.026c0.01,0.015,0.03,0.031,0.04,0.05s0.02,0.037,0.03,0.057c0,0.011,0.01,0.019,0.01,0.029
			c0,0.01,0,0.018,0,0.025c0.01,0.021,0.01,0.04,0.01,0.062c0,0.021,0,0.041-0.01,0.061c0,0.018-0.01,0.036-0.021,0.053
			c-0.01,0.022-0.01,0.041-0.029,0.061c0,0.006,0,0.013-0.01,0.02c-0.57,0.704-1.311,0.84-2.021,0.971
			c-0.399,0.072-0.771,0.142-1.12,0.3c-1.3,0.596-1.49,1.987-1.27,2.997c0.27,1.164,1.16,2.328,2.56,2.306
			c1.15-0.019,1.271-0.534,1.46-1.384c0.11-0.482,0.23-1.028,0.6-1.506c0.94-1.236,3.19-1.358,4.83-1.098
			c0.541,0.006,0.791,0.133,1.15,0.582c0.46,0.588,0.33,1.312,0.21,2.012c-0.12,0.633-0.22,1.229,0.12,1.653
			c0.32,0.402,0.82,0.493,1.16,0.501c0.689,0.014,1.45-0.297,1.85-0.754c0.75-0.849,0.521-1.924,0.271-3.168
			c-0.29-1.383-0.61-2.947,0.58-4.296c0-0.003,0.01-0.007,0.01-0.012c0.01-0.009,0.021-0.019,0.021-0.028
			c0.01-0.002,0.01-0.003,0.01-0.006c0.029-0.027,0.06-0.047,0.09-0.062c0-0.004,0.01-0.006,0.01-0.008
			c0.03-0.011,0.061-0.019,0.09-0.021c0.021-0.003,0.04-0.001,0.061-0.001c0.01,0.001,0.02-0.002,0.039,0
			c0,0,0.011,0.006,0.021,0.01c0.021,0.004,0.04,0.014,0.06,0.021c0.011,0.011,0.03,0.021,0.051,0.033
			c0.01,0.006,0.01,0.006,0.02,0.012c0.01,0.009,0.01,0.021,0.021,0.029c0.01,0.016,0.03,0.032,0.04,0.051s0.02,0.035,0.02,0.056
			c0.01,0.019,0.01,0.037,0.02,0.055c0,0.022,0,0.044,0,0.067c0,0.012,0,0.023,0,0.033c-0.079,0.435,0.261,0.721,0.871,1.188
			c0.529,0.403,1.149,0.877,1.399,1.622c1.06-1.996,1.01-4.515-0.21-5.958c-0.01-0.004-0.01-0.01-0.02-0.014
			c-0.11-0.133-0.09-0.331,0.039-0.444c0.131-0.112,0.33-0.095,0.44,0.036c0.01,0.005,0.01,0.009,0.021,0.014
			c0.439,0.52,0.959,0.785,1.529,0.785c0.881,0.001,1.811-0.605,2.49-1.279c-1.78-0.527-4.1-2.877-4.311-4.242
			c-0.02-0.131,0.041-0.262,0.16-0.325c0.12-0.062,0.261-0.048,0.36,0.04c0.681,0.598,1.65,0.754,2.66,0.426
			c0.819-0.268,1.5-0.816,1.771-1.422c-1.871-0.536-4.811-2.21-4.591-4.398c0.011-0.146,0.13-0.263,0.271-0.281
			c0.149-0.02,0.29,0.064,0.34,0.203c0.26,0.717,1.16,0.993,1.9,1.012c0.949,0.026,2.08-0.338,2.58-1.082
			c-2.381-1.237-3.49-2.209-3.961-5.377c-0.01-0.049,0-0.096,0.01-0.14c-0.39-0.581-0.609-1.198-0.609-1.793
			c0-0.174,0.15-0.315,0.32-0.313c0.17,0,0.319,0.142,0.319,0.316c-0.01,1,0.83,2.153,2.141,2.938
			c0.989,0.599,2.399,1.034,3.67,0.694c-0.5-0.312-0.91-0.787-1.181-1.408c-0.72-1.655-0.39-4.074,0.34-5.457
			c1.53-2.879,4.44-4.831,7.99-5.354v0.001c0.2-0.416,0.391-0.826,0.54-1.234c-3.81,0.425-8.51,3.033-10.37,6.314
			c-0.01,0.008-0.01-0.01,0-0.014c1.881-3.535,6.62-6.826,10.67-7.27c0.03-0.113,0.051-0.224,0.07-0.336
			C308.08,439.887,304.58,441.402,302.08,444.641"/>
		<path fill="#FFDD00" d="M318.45,407.057c0.209,1.346-0.4,2.642-1.28,3.229c-0.15,0.098-0.3,0.172-0.46,0.23
			c0.81,0.377,1.5,0.047,1.85-0.207c0.761-0.543,1.37-1.711,1.08-2.895c-0.02-0.062-0.01-0.126,0.011-0.184
			C319.25,407.273,318.84,407.23,318.45,407.057"/>
		<path fill="#FFDD00" d="M321.1,406.585c-0.25,0.224-0.55,0.401-0.88,0.517c0.851,0.299,1.601,0.182,2.14-0.348
			c0.73-0.716,0.94-2.053,0.5-3.18c-0.01-0.031-0.01-0.064-0.01-0.096c-0.33,0.256-0.72,0.41-1.14,0.422
			C322.2,404.938,321.8,405.975,321.1,406.585"/>
		<path fill="#FFDD00" d="M256.32,376.189c-1.131,0.467-2.15,1.391-2.83,2.523c1.479-0.775,3.66-1.12,5.05-0.345
			c0.069-0.804,0.44-1.626,1-2.26C258.49,375.727,257.39,375.751,256.32,376.189"/>
		<path fill="#FFDD00" d="M252.57,386.941c0.71-0.716,1.67-1.313,2.67-1.625c0.68-0.213,1.33-0.278,1.91-0.202
			c-0.09-0.202-0.15-0.397-0.17-0.559c-0.11-0.642,0.06-1.36,0.399-1.964C254.811,382.703,253.2,384.707,252.57,386.941"/>
		<path fill="#FFDD00" d="M327.311,395.889c-0.391,0.215-0.881,0.391-1.341,0.438c0.42,0.817,0.32,1.834-0.09,2.621
			c0.04-0.019,0.08-0.038,0.12-0.04c1.22-0.034,1.84-0.854,2.1-1.34c0.45-0.812,0.521-1.809,0.221-2.626
			C328.12,395.299,327.78,395.627,327.311,395.889"/>
		<path fill="#FFDD00" d="M323.46,400.246c0.46,1.023,0.31,2.049-0.13,2.727c-0.051,0.069-0.101,0.123-0.16,0.186
			c0.03,0.002,0.06-0.006,0.09,0.006c0.88,0.328,1.76,0.016,2.36-0.836c0.569-0.811,0.819-2.104,0.149-2.901
			c-0.05-0.054-0.06-0.118-0.069-0.186c-0.04,0.056-0.07,0.112-0.11,0.166C325.13,399.988,324.38,400.425,323.46,400.246"/>
		<path fill="#FFDD00" d="M297.939,477.176c-0.289,0.823-0.319,1.652-0.109,2.439c0.41-1.02,1.22-2.131,2.13-2.818
			c0.569-0.425,1.13-0.677,1.67-0.74c-0.54-0.697-0.76-1.47-0.66-2.227C299.57,474.561,298.43,475.805,297.939,477.176"/>
		<path fill="#FFDD00" d="M327.53,391.917c0.55,0.47,1.04,1.077,1.029,2.03c1.05-0.193,1.73-0.738,1.87-1.529
			c0.16-0.918-0.41-1.923-1.399-2.518C328.95,390.701,328.47,391.561,327.53,391.917"/>
		<path fill="#FFDD00" d="M327.99,387.795c0.539,0.325,0.85,0.821,0.979,1.343c1.11-0.591,1.57-1.793,1.44-2.72
			c-0.101-0.783-0.601-1.341-1.36-1.57c0.07,0.216,0.11,0.438,0.13,0.656C329.22,386.376,328.83,387.314,327.99,387.795"/>
		<path fill="#FFDD00" d="M305.561,415.391c0.119,1.037,0.34,2.039,0.529,3.067c0,0.037-0.05,0.151-0.07,0.076
			c-0.34-0.914-0.709-1.966-0.68-2.966c-0.5,0.386-1.18,0.561-1.83,0.482c0,0.129,0.01,0.26,0.01,0.385
			c0.15,1.752,1.32,3.029,3.291,3.566c0.479-0.717,1.039-2.513,0.92-3.771c-0.041-0.441-0.16-0.756-0.351-0.909
			c-0.05-0.037-0.08-0.087-0.1-0.138c-0.45-0.074-0.891-0.256-1.25-0.582C305.95,414.896,305.79,415.162,305.561,415.391"/>
		<path fill="#FFDD00" d="M303.21,411.584c-0.09,0.793-0.41,1.546-0.94,2.254c0,0.008,0,0.014,0,0.02
			c-0.02,0.86,0.42,1.248,0.79,1.424c0.62,0.293,1.48,0.177,1.99-0.271c0.28-0.247,0.57-0.698,0.351-1.439
			c-0.011-0.009-0.011-0.015-0.011-0.021c-0.02-0.075-0.01-0.151,0.021-0.218c-0.04-0.002-0.07,0.001-0.101-0.003
			C304.59,413.23,303.76,412.723,303.21,411.584"/>
		<path fill="#FFDD00" d="M294.47,409.866c-0.31-0.041-0.61-0.107-0.91-0.191c-0.6,0.7-1.239,1.371-1.819,2.069
			c-0.011,0.015-0.011-0.032,0-0.04c0.51-0.726,1.05-1.46,1.609-2.168c-0.04-0.06-0.06-0.13-0.05-0.203
			c0.021-0.151,0.14-0.271,0.29-0.283c0.07-0.005,0.13-0.021,0.189-0.046c0.121-0.139,0.24-0.271,0.36-0.404
			c0.15-0.338,0.22-0.838,0.29-1.442c0.01-0.06,0.01-0.119,0.021-0.179c-0.351,0.207-0.73,0.379-1.141,0.517
			c-0.04,0.021-0.069,0.037-0.109,0.045c-0.101,0.019-0.181,0.04-0.271,0.062c-0.1,0.025-0.189,0.056-0.29,0.078
			c-1.77,0.545-1.96,1.817-2.17,3.273c-0.14,0.97-0.28,1.967-0.94,2.729c1.721,0.207,4-0.426,4.99-2.271
			c0.17-0.55,0.45-1.065,0.9-1.489C295.1,409.924,294.779,409.909,294.47,409.866"/>
		<path fill="#FFDD00" d="M295.24,406.195c-0.101,0.218-0.141,0.611-0.181,1.029c-0.069,0.67-0.159,1.504-0.569,2.008
			c1.359,0.184,2.75-0.07,3.851-0.765c1.129-0.713,1.869-1.84,2.188-3.266c-0.609,0.198-1.269,0.321-1.979,0.362
			c-0.319,0.227-0.66,0.439-0.94,0.711c-0.409,0.383-0.8,0.779-1.199,1.17c-0.021,0.016-0.01-0.038,0-0.049
			c0.431-0.481,0.859-0.961,1.32-1.408c0.131-0.122,0.27-0.272,0.42-0.424c-0.221,0.004-0.44,0.013-0.66,0
			c-0.01,0-0.021,0-0.03-0.002c-0.12-0.018-0.229-0.11-0.26-0.235c-0.03-0.136,0.02-0.275,0.14-0.347
			c0.691-0.418,0.891-1.152,0.91-1.949C297.32,403.213,295.81,404.887,295.24,406.195"/>
		<path fill="#FFDD00" d="M322.82,397.782c0.25,0.571,0.24,1.114,0.109,1.583c1.16,0.665,1.9-0.012,2.16-0.348
			c0.561-0.711,0.721-1.875,0.16-2.633c-0.02,0.052-0.03,0.105-0.061,0.156C324.76,397.348,323.82,397.814,322.82,397.782"/>
		<path fill="#FFDD00" d="M252.87,439.07c0.75-1.825,2.64-4.18,4.5-4.438c-0.14-0.643-0.59-0.875-1.15-1.16
			c-0.399-0.201-0.8-0.416-1.09-0.793C253.46,433.659,252.439,436.748,252.87,439.07"/>
		<path fill="#FFDD00" d="M318.03,404.682c0.04,0.447-0.021,0.877-0.171,1.262c0.091-0.004,0.181,0.025,0.24,0.097
			c0.79,0.853,1.9,0.683,2.59,0.072c0.58-0.511,0.961-1.449,0.15-2.411c-0.02-0.023-0.02-0.057-0.04-0.083
			c-0.01,0.026-0.03,0.056-0.05,0.083C320.17,404.545,319.09,404.918,318.03,404.682"/>
		<path fill="#FFDD00" d="M313.67,410.062c-0.66,0.41-1.41,0.445-2.13,0.115c-0.07,0.771-0.45,1.383-1.08,1.756
			c0.08,0.017,0.149,0.051,0.19,0.116c0.84,1.153,1.899,1.038,2.609,0.546c0.86-0.597,1.35-1.789,0.8-2.834
			C313.939,409.873,313.81,409.979,313.67,410.062"/>
		<path fill="#FFDD00" d="M320.74,401.111c0.46,0.772,0.47,1.507,0.271,2.088c0.049-0.012,0.109-0.02,0.159-0.004
			c0.66,0.203,1.27-0.01,1.63-0.568c0.4-0.615,0.47-1.617-0.188-2.568c-0.062,0.09-0.121,0.174-0.191,0.25
			C321.96,400.83,321.35,401.107,320.74,401.111"/>
		<path fill="#FFDD00" d="M315.03,407.422c0.01,0.653-0.181,1.295-0.53,1.817c0.75,0.81,1.59,1.003,2.32,0.521
			c0.859-0.572,1.369-2.035,0.779-3.324c-0.109,0.166-0.24,0.317-0.39,0.453C316.63,407.411,315.85,407.598,315.03,407.422"/>
		<path fill="#FFDD00" d="M307.561,411.803c-0.291,0.803-0.871,1.356-1.601,1.504c0.01,0.019,0.03,0.034,0.03,0.057
			c0.01,0.007,0.01,0.013,0.01,0.02c0.35,1.094,1.38,1.312,2.16,1.169c0.99-0.183,2.01-0.979,1.92-2.295
			c0-0.054,0.02-0.101,0.04-0.147C309.311,412.43,308.35,412.312,307.561,411.803"/>
		<path fill="#FFDD00" d="M303.63,401.09c-0.59,0.137-1.17,0.186-1.71,0.131c0,0,0,0-0.01-0.002c-0.131-0.017-0.23-0.113-0.261-0.24
			c-0.029-0.131,0.021-0.267,0.141-0.338c0.569-0.359,0.609-1.168,0.609-2.121c-0.659,1.687-1.649,3.307-2.55,4.852
			c0,0.007,0-0.007,0-0.01c0.94-1.871,1.76-3.752,2.561-5.684c0-0.227,0.01-0.455,0.029-0.682c-0.66,0.695-1.54,1.236-2.52,1.533
			c-0.021,0.007-0.04,0.01-0.061,0.015c-0.72,0.449-1.149,2.536-1.05,3.287c0.13,1.033,0.17,2.253-0.489,3.112
			c2.229-0.073,3.979-1,5.1-2.703c0-0.008,0.01-0.012,0.01-0.02C303.42,401.879,303.479,401.501,303.63,401.09"/>
		<path fill="#FFDD00" d="M296.47,418.232c-0.55,1.25-0.12,2.244,0.32,3.295c0.36,0.828,0.72,1.683,0.59,2.664
			c1.21,0.01,2.271-0.366,2.96-1.053c0.57-0.572,0.84-1.32,0.82-2.216c-0.399,0.241-0.84,0.441-1.33,0.593
			c-0.04,0.014-0.09,0.018-0.13,0.012c-0.05-0.006-0.08-0.02-0.12-0.041c-0.4-0.235-0.73-0.569-0.99-0.969
			c0.01,0.492,0,0.985-0.04,1.472c0,0.069-0.07,0.135-0.07,0.03c0-0.606-0.04-1.211-0.079-1.816c-0.53-1.012-0.711-2.346-0.65-3.602
			c-0.34,0.57-0.771,1.112-1.271,1.594C296.47,418.208,296.479,418.221,296.47,418.232"/>
		<path fill="#FFDD00" d="M324.51,382.03c0.44-0.414,0.63-0.955,0.49-1.518c-0.12-0.501-0.45-0.918-0.9-1.159
			c0.15,0.534,0.15,1.149-0.029,1.71c-0.041,0.113-0.09,0.216-0.141,0.318C324.189,381.549,324.38,381.77,324.51,382.03"/>
		<path fill="#FFDD00" d="M324.78,390.423c-0.171,0.744-0.69,1.271-1.431,1.486c0.33,0.438,0.521,0.971,0.53,1.495
			c0.04-0.014,0.09-0.021,0.15-0.01c0.96,0.176,1.989-0.76,2.109-1.441c0.15-0.764-0.6-1.368-1.31-1.902
			C324.83,390.176,324.81,390.299,324.78,390.423"/>
		<path fill="#FFDD00" d="M324.78,389.347c0.979-0.226,1.77-1.055,1.76-1.854c-0.01-0.636-0.55-1.09-1.53-1.282
			c-0.1,0.667-0.52,1.32-1.1,1.715C324.35,388.305,324.65,388.808,324.78,389.347"/>
		<path fill="#FFDD00" d="M272.439,461.256c-1.22,0.312-2.25,1.072-2.8,2.012c1.48-0.297,3.41,0.094,4.681,1.107
			c-0.011-0.177-0.011-0.368-0.011-0.583c0.04-0.86,0.33-1.494,0.88-1.883c0.09-0.062,0.181-0.118,0.28-0.165
			C274.689,461.139,273.609,460.958,272.439,461.256"/>
		<path fill="#FFDD00" d="M320.061,398.173c0.149,0.236,0.239,0.502,0.27,0.792c0.05,0.449-0.07,0.915-0.311,1.321
			c0.03,0.006,0.051,0.011,0.07,0.024c0.68,0.387,1.44,0.055,1.86-0.42c0.45-0.505,0.689-1.349,0.09-2.238l0,0
			c-0.03-0.01-0.05-0.036-0.08-0.055C321.54,397.964,320.92,398.216,320.061,398.173"/>
		<path fill="#FFDD00" d="M322.311,395.315c0.319,0.556,0.35,1.202,0.06,1.762c0.01,0.006,0.02,0.009,0.03,0.019
			c0.92,0.205,1.85-0.141,2.229-0.851c0.37-0.7,0.07-1.522-0.819-2.264c-0.03,0.117-0.07,0.232-0.121,0.342
			C323.43,394.895,322.939,395.24,322.311,395.315"/>
		<path fill="#FFDD00" d="M272.67,468.816c-0.82,0.871-1.34,2.113-1.48,3.395c0.271-0.37,0.62-0.699,1.04-0.975
			c0.9-0.596,2.021-0.866,3.05-0.754c-0.069-0.286-0.129-0.604-0.159-0.971c-0.08-0.9,0.09-1.521,0.359-1.965
			C274.4,467.566,273.43,468,272.67,468.816"/>
		<path fill="#FFDD00" d="M324.07,382.731c-0.021-0.352-0.2-0.64-0.48-0.829c-0.13,0.141-0.26,0.27-0.42,0.372
			c0.26,0.199,0.46,0.476,0.58,0.82c0.05,0.152,0.07,0.312,0.09,0.475C324,383.318,324.1,383.026,324.07,382.731"/>
		<path fill="#FFDD00" d="M323.96,384.375c0.569,0.226,0.93,0.646,1.04,1.193c1.01-0.287,1.29-1.024,1.22-1.576
			c-0.08-0.592-0.59-1.215-1.52-1.264C324.729,383.352,324.45,383.965,323.96,384.375"/>
		<path fill="#FFDD00" d="M321.51,393.106c0.28,0.452,0.35,1.005,0.23,1.561c0.66,0.108,1.149-0.104,1.38-0.604
			c0.26-0.571,0.12-1.475-0.54-2.05C322.38,392.55,322,392.936,321.51,393.106"/>
		<path fill="#FFDD00" d="M318.189,401.406c0.17,0.33,0.24,0.701,0.19,1.086c-0.07,0.556-0.37,1.072-0.81,1.428
			c0.069-0.013,0.129-0.012,0.189,0.014c1.05,0.448,2.04,0.043,2.47-0.59c0.511-0.73,0.311-1.682-0.52-2.541
			c-0.021-0.017-0.03-0.037-0.04-0.057c-0.1,0.104-0.21,0.203-0.33,0.285C318.99,401.275,318.59,401.4,318.189,401.406"/>
		<path fill="#FFDD00" d="M325.5,389.767c0.56,0.443,1.13,0.995,1.26,1.691c0.01-0.003,0.02-0.014,0.03-0.015
			c1.069-0.102,1.59-0.945,1.62-1.686c0.029-0.661-0.32-1.428-1.34-1.645C326.85,388.804,326.26,389.427,325.5,389.767"/>
		<path fill="#FFDD00" d="M251.13,427.133c1.6-1.581,4.12-2.601,6.24-2.043c-0.29-0.722-0.431-1.564-0.33-2.253
			c0.04-0.298,0.13-0.554,0.239-0.778C254.42,422.23,252.1,424.566,251.13,427.133"/>
		<path fill="#FFDD00" d="M325.939,385.834c1.03,0.451,1.211,1.207,1.23,1.598c1-0.219,1.42-1.111,1.37-1.893
			c-0.03-0.731-0.48-1.591-1.63-1.622c-0.021,0-0.04-0.018-0.07-0.025c0,0.005,0,0.012,0,0.018
			C326.93,384.58,326.67,385.349,325.939,385.834"/>
		<path fill="#FFDD00" d="M324.73,393.994c0.459,0.534,0.689,1.108,0.68,1.664c0.01,0,0.01,0,0.01,0.002
			c0.34,0.13,1.02-0.008,1.58-0.321c0.5-0.279,0.82-0.639,0.89-0.987c0.21-1.158-0.399-1.686-1.14-2.251
			C326.6,392.844,325.75,393.771,324.73,393.994"/>
		<path fill="#FFDD00" d="M325.25,382.166c0.74,0.186,1.22,0.682,1.45,1.23c0.02-0.016,0.02-0.038,0.04-0.051
			c0.899-0.646,0.949-1.565,0.72-2.155c-0.229-0.583-0.88-1.206-1.931-1.101c0.03,0.09,0.07,0.181,0.091,0.277
			C325.77,381.004,325.63,381.644,325.25,382.166"/>
		<path fill="#FFDD00" d="M325.21,379.506l0.14-0.217c0.59-0.937,0.86-1.365,0.07-2.612c-0.01-0.024-0.02-0.051-0.03-0.078
			c-0.96,0.427-1.78,0.895-2.489,1.405c0.27,0.075,0.51,0.222,0.709,0.44c0.03,0.034,0.061,0.071,0.08,0.106
			c0.011,0,0.011-0.001,0.021,0C324.33,378.673,324.859,379.023,325.21,379.506"/>
		<path fill="#FFDD00" d="M312.85,407.271c0.03,0.902-0.41,1.815-1.109,2.299c0.55,0.272,1.1,0.264,1.59-0.043
			c0.68-0.42,1.1-1.289,1.07-2.157c-0.301,0.112-0.61,0.162-0.931,0.12C313.26,407.461,313.05,407.391,312.85,407.271"/>
		<path fill="#FFDD00" d="M315.78,404.35c0.34,0.877,0.1,1.743-0.421,2.35c-0.039,0.037-0.069,0.074-0.109,0.111
			c0.59,0.102,1.13-0.028,1.54-0.393c0.55-0.488,0.75-1.279,0.54-2.118c-0.021-0.085,0.01-0.169,0.05-0.241
			c-0.13,0.084-0.26,0.158-0.399,0.213C316.71,404.371,316.29,404.464,315.78,404.35"/>
		<path fill="#FFDD00" d="M309.78,409.676c-0.141,0.659-0.561,1.223-1.181,1.543c-0.149,0.08-0.319,0.135-0.479,0.176
			c0.63,0.315,1.36,0.354,1.93,0.062c0.58-0.291,0.88-0.845,0.87-1.569C310.54,409.938,310.15,409.876,309.78,409.676"/>
		<path fill="#FFDD00" d="M309.03,392.444c0.01-0.002,0.01-0.006,0.02-0.007c0.46-0.057,0.76-0.195,0.89-0.422
			c0.211-0.342,0.091-0.925-0.1-1.543c-0.01,0.01-0.01,0.022-0.01,0.031C309.6,391.161,309.33,391.807,309.03,392.444"/>
		<path fill="#FFDD00" d="M305.189,393.234c-0.119-0.015-0.21-0.09-0.26-0.199c-0.05-0.132,0-0.281,0.11-0.366
			c0.899-0.671,0.86-1.693,0.819-2.774c0-0.065,0-0.126,0-0.191c-0.67,1.382-1.859,2.542-2.77,3.733
			c-0.02,0.022-0.02-0.026-0.01-0.037c0.5-0.852,1.05-1.675,1.57-2.52c0.119-0.187,0.229-0.381,0.329-0.578
			c-0.1,0.067-0.189,0.136-0.3,0.196c-0.439,0.26-0.91,0.429-1.38,0.52c-0.649,0.55-0.99,1.507-1.32,2.436
			c-0.25,0.711-0.51,1.439-0.909,1.985c2.02-0.231,3.77-1.061,4.92-2.316c-0.24,0.046-0.48,0.089-0.73,0.113
			C305.229,393.238,305.21,393.238,305.189,393.234"/>
		<path fill="#FFDD00" d="M310.43,394.213c-0.15,0.591-0.45,1.099-0.84,1.531c-0.25,1.06-0.061,2.037,0.14,3.124
			c0,0.015-0.02,0.06-0.03,0.03c-0.27-0.961-0.59-1.846-0.5-2.773c-0.47,0.418-1.01,0.757-1.539,1.023
			c-0.15,0.949,0.189,2.263,0.789,3.05c0.541,0.612,1.23,0.944,1.91,0.907c0.561-0.027,1.07-0.295,1.48-0.762
			c-1.45-1.248-1.53-3.617-0.83-5.405C310.79,394.705,310.59,394.473,310.43,394.213"/>
		<path fill="#FFDD00" d="M309.12,393.064c-0.021,0.002-0.05,0.001-0.07-0.001c-0.1-0.015-0.189-0.078-0.239-0.167
			c-0.301,0.62-0.621,1.229-0.961,1.822c-0.02,0.035-0.029-0.015-0.02-0.036c0.48-1.046,0.83-2.141,1.24-3.215
			c-0.521,0.593-1.21,1.06-2.03,1.367c-0.08,0.116-0.16,0.23-0.25,0.341c-0.47,0.753-0.36,1.421-0.229,2.179
			c0.079,0.498,0.17,1.008,0.079,1.555c1.48-0.585,3.4-1.74,3.28-3.775c-0.01-0.062,0.01-0.118,0.04-0.169
			c-0.01-0.025-0.01-0.045-0.021-0.071C309.67,392.975,309.39,393.038,309.12,393.064"/>
		<path fill="#FFDD00" d="M329.39,384.293c0.05,0.018,0.09,0.041,0.14,0.061c0.011-0.026,0.021-0.052,0.041-0.057
			c2.439-0.665,4.92-1.384,7.409-1.823c0-0.001,0,0.039-0.01,0.042c-2.32,0.697-4.649,1.528-7.03,2.055
			c0.601,0.389,0.99,0.999,1.101,1.762c0.05,0.379,0.02,0.76-0.07,1.129c3.46-1.483,7.34-3.159,10.13-5.688
			c-3.92-1.376-7.67-1.513-11.15-0.409c-0.01,0.006-0.029,0.005-0.05,0.008c0.021,0.047,0.04,0.093,0.061,0.143
			C330.279,382.442,330.04,383.5,329.39,384.293"/>
		<path fill="#FFDD00" d="M345.35,372.163c-1.88,0.316-3.77,0.615-5.67,0.908c0,0.032-0.01,0.064-0.02,0.094
			c-0.71,1.525-1.86,2.835-3.21,3.987c7.739-1.925,15.55-3.683,23.25-5.777c0,0,0,0.017,0,0.018
			c-4.61,1.353-9.24,2.624-13.851,3.973c-3.229,0.943-6.779,2.186-10.149,2.421c-0.011,0.001-0.021-0.007-0.021-0.012
			c-1.18,0.911-2.47,1.721-3.729,2.457c2.29-0.391,4.68-0.289,7.14,0.297c0.01-0.008,0.03-0.021,0.05-0.025
			c1.15-0.296,2.341-0.594,3.55-0.898c5.15-1.29,10.471-2.624,15.131-4.363c4.369-1.63,10.869-4.049,10.899-9.182
			c-5.7,2.365-11.79,3.922-18.09,5.149c-1.771,0.487-3.6,0.767-5.25,0.955C345.37,372.166,345.359,372.163,345.35,372.163"/>
		<path fill="#FFDD00" d="M316.71,416.885c2.18,1.463,3.84,3.84,5.72,5.631c0.021,0.016-0.01,0.108-0.02,0.099
			c-1.82-1.517-3.721-3.089-5.4-4.798c0.35,1.218,0.51,2.48,0.49,3.754c-0.01,0.101-0.061,0.193-0.141,0.252
			c-0.029,0.023-0.069,0.04-0.1,0.049c2.061,1.525,4.98,2.96,6.33,2.811c0.24-0.025,0.41-0.096,0.51-0.215
			c0.04-0.363,0.07-2.578-3.029-5.979c-0.021-0.021-0.03-0.046-0.041-0.07c-1.85-0.61-3.51-1.655-4.77-2.62
			C316.43,416.152,316.58,416.518,316.71,416.885"/>
		<path fill="#FFDD00" d="M306.3,402.527c-0.01,0.025-0.02,0.023-0.02-0.002c0.159-1.071,0.27-2.307,0.63-3.377
			c-0.65,0.776-1.561,1.358-2.51,1.709c0,0.039-0.011,0.076-0.03,0.113c-0.41,0.797-0.42,1.553-0.011,2.246
			c0.58,0.989,2.011,1.732,3.381,1.764c0.01,0,0.01,0.004,0.02,0.004c0.37-0.161,0.721-0.336,1.04-0.528
			c-1.3-0.912-1.21-2.86-0.93-3.994c-0.261-0.372-0.47-0.817-0.62-1.295C306.96,400.292,306.54,401.387,306.3,402.527"/>
		<path fill="#FFDD00" d="M332.84,438.958c0.04,2.161-0.851,4.082-2.359,5.183c0.72,0.162,1.319,0.108,1.75-0.162
			c0.58-0.361,0.76-1.045,0.818-1.554c0.012-0.165,0.161-0.288,0.321-0.28c0.17,0.008,0.3,0.143,0.31,0.311
			c0.01,0.958-0.01,1.932-0.029,2.875c-0.041,1.877-0.08,3.648,0.14,5.216c0.54,3.972,3.71,7.028,7.49,7.278
			c1.01,0.05,2.09-0.025,2.739-0.189c0.66-0.164,1.45-0.601,2.211-1.022c1.26-0.696,2.64-1.46,3.729-1.163
			c-0.29-0.277-0.64-0.428-0.899-0.508c-1.061-0.336-2.36-0.086-2.951,0.572c-0.01,0.008-0.02,0.008-0.02,0.014
			c-0.021,0.016-0.04,0.027-0.05,0.039c-0.021,0.012-0.04,0.02-0.06,0.027c-0.021,0.008-0.03,0.01-0.051,0.016
			c-0.02,0.003-0.04,0.007-0.06,0.005c-0.021,0-0.04-0.003-0.06-0.009c-0.021-0.002-0.041-0.008-0.061-0.019
			c-0.01-0.003-0.02-0.003-0.03-0.005c-0.01-0.008-0.01-0.018-0.03-0.025c-0.01-0.008-0.02-0.011-0.03-0.019
			c0-0.006-0.009-0.015-0.009-0.019c-0.021-0.019-0.03-0.035-0.041-0.054c-0.01-0.017-0.02-0.032-0.029-0.05
			c0-0.02-0.01-0.04-0.01-0.061c-0.01-0.02-0.01-0.037-0.01-0.059c0-0.02,0-0.038,0.01-0.058c0-0.021,0.01-0.041,0.02-0.062
			c0-0.008,0-0.015,0-0.023c1.391-2.588,1.471-6.264,0.85-8.411c-0.699-2.418-1.879-4.538-2.92-6.41
			c-1.819-3.271-3.26-5.875-1.09-8.11c-0.14-0.105-0.26-0.266-0.35-0.5c-0.01-0.014-0.01-0.037-0.01-0.064
			c-0.161-0.043-0.29-0.141-0.391-0.303c-0.06-0.01-0.13-0.022-0.189-0.039c-0.01-0.002-0.021,0-0.021-0.002
			c-0.009,0-0.009-0.002-0.009-0.002c-0.36-0.108-0.61-0.34-0.75-0.635c-0.021,0.019-0.021,0.039-0.04,0.057
			c-2.58,2.878-0.55,6.771,1.61,10.894c2.01,3.851,4.09,7.831,2.53,11.325c-0.771,1.736-2.041,2.732-3.57,2.803
			c-0.23,0.012-0.46,0-0.7-0.031c-1.601-0.218-3.19-1.402-4.19-3.178c-1.439-2.566-1.449-5.951-1.461-9.225
			c-0.009-5.319-0.039-10.809-6.029-13.33c0.07,0.507,0.11,1.037,0.121,1.597c3.33,1.16,4.85,4.739,4.709,8.071
			c0,0.004-0.01,0.006-0.01,0.001c0.01-3.489-1.88-5.831-4.71-7.494c0,0.19-0.01,0.381-0.02,0.577
			c0.01,0.005,0.03,0.004,0.039,0.008C331.311,433.864,332.78,436.242,332.84,438.958"/>
		<path fill="#FFDD00" d="M264.63,371.594c-0.86,0.15-1.62,0.553-2.25,1.181c1.72-0.375,3.09-0.033,4.03,0.998
			c0.069-0.166,0.149-0.33,0.27-0.488c0.32-0.431,0.78-0.755,1.29-0.945C266.93,371.666,265.76,371.399,264.63,371.594"/>
		<path fill="#FFDD00" d="M343.74,424.703c0.01-0.012,0.01,0.012,0.01,0.018c-0.84,1.442-3.41,2.934-3.07,4.741
			c0.04-0.108,0.09-0.215,0.16-0.315c0.71-1.111,2.09-1.66,2.72-2.801c0.011-0.019,0.011,0.014,0.011,0.023
			c-0.34,0.743-1.041,1.365-1.59,1.955c-0.33,0.359-0.69,0.726-0.94,1.15c-0.45,0.758,0.25,0.969,0.77,1.287
			c1.41-0.757,2.48-1.889,3.55-3.093c0.011-0.01,0.011,0.031,0,0.039c-0.629,0.749-1.25,1.528-1.92,2.229
			c-0.26,0.268-0.68,0.785-1.119,1.108c1.119,0.032,3.13-1.358,3.81-1.612c1.25-0.474,2.51-0.543,2.899,0.95
			c0.011,0.013-0.01,0.058-0.02,0.033c-0.89-2.869-4.26,0.509-6.18,1.165c1.51,0.668,3.79-2.23,5.46-1.018
			c0,0.004,0,0.033-0.011,0.029c-1.319-0.596-2.72,0.547-3.789,1.195c-0.25,0.146-0.53,0.311-0.82,0.43
			c0.75,0.221,1.1-0.025,1.6-0.396c0.381-0.281,0.851-0.634,1.59-0.806c0.811-0.193,2.2,0,2.5,0.741
			c0.101,0.229,0.11,0.546-0.209,0.907c0.649,0.012,1.159-0.236,1.51-0.732c0.6-0.845,0.59-2.27-0.03-3.178
			c-0.28-0.41-0.771-0.839-1.57-0.835c-0.29,0.079-0.67,0.072-0.899,0.101c-0.4,0.049-0.92,0.102-1.21,0.394
			c-0.011,0.004-0.011-0.013,0-0.015c0.39-0.387,0.79-0.74,1.27-1.02c0.16-0.089,0.511-0.303,0.81-0.377
			c2.19-1.309,3.08-3.924,2.881-6.224c-0.67,0.806-1.83,1.204-2.891,1.563c-1.369,0.471-2.31,0.846-2.59,1.594
			c0,0.063-0.01,0.127-0.02,0.189c-0.01,0.165-0.03,0.325-0.08,0.473c0,0.016-0.01,0.027-0.021,0.041
			c-0.03,0.109-0.069,0.213-0.109,0.305c-0.11,0.257-0.271,0.537-0.49,0.719c-0.21,0.177-0.56,0.202-0.82,0.283
			c-0.01,0.006,0-0.038,0-0.045c0.32-0.473,0.65-1.053,0.8-1.612c0.051-0.19,0.07-0.415,0.101-0.638
			c-0.08-0.844-0.56-1.807-1.24-2.293c-0.37-0.264-0.729-0.348-1.09-0.252c0.22,0.184,0.36,0.402,0.42,0.654
			c0.21,0.924-0.72,2.022-1.81,3.293c-1.09,1.286-2.34,2.744-2.221,3.948c0.04,0.382,0.221,0.724,0.53,1.041
			C339.54,427.855,342.67,426.251,343.74,424.703"/>
		<path fill="#FFDD00" d="M298.86,392.561c-0.351-0.099-0.71-0.26-1.11-0.494c-0.49,0.332-1.13,0.561-1.66,0.749
			c-0.59,0.206-1.16,0.311-1.779,0.347c-0.021,0.001-0.011-0.057,0-0.061c0.68-0.142,1.35-0.352,1.97-0.654
			c0.34-0.166,0.71-0.432,1.08-0.627c-0.141-0.095-0.29-0.201-0.44-0.314c-0.05-0.007-0.09-0.021-0.13-0.048
			c-1.25-0.839-2.13-0.146-3.43,1.096c-0.69,0.653-1.431,1.367-2.3,1.551c1.26,0.697,2.869,1.055,4.25,0.899
			c0.84-0.093,1.989-0.422,2.75-1.463c0.01-0.013,0.02-0.019,0.029-0.03C298.28,393.141,298.53,392.81,298.86,392.561"/>
		<path fill="#FFDD00" d="M301.68,488.6c0.38-2.012,1.28-4.582,2.971-5.401c-1.591-0.558-1.921-1.646-1.98-2.162
			C300.54,483.109,300.949,486.292,301.68,488.6"/>
		<path fill="#FFDD00" d="M286.7,415.334c-0.721,0.584-1.511,1.121-2.221,1.68c-0.02,0.01-0.02-0.027-0.01-0.033
			c0.55-0.47,1.101-0.93,1.64-1.402c0.301-0.258,0.58-0.532,0.86-0.805c0.11-0.166,0.25-0.325,0.431-0.477
			c-0.521,0.098-1.061,0.131-1.61,0.131c-0.03,0.024-0.07,0.04-0.11,0.049c-1.109,0.226-1.68,0.899-2.29,1.612
			c-0.62,0.736-1.319,1.558-2.66,1.89c0.931,1.082,1.9,1.635,2.91,1.646c1.48,0.015,2.66-1.146,3.271-1.894
			c-0.021-0.09-0.04-0.182-0.061-0.272C286.68,416.761,286.51,416.018,286.7,415.334"/>
		<path fill="#FFDD00" d="M294.75,398.25c-0.27,1.245-0.58,2.629-1.66,3.301c1.16,0.414,2.79,0.536,3.93,0.034
			c0.69-0.304,1.12-0.804,1.28-1.485c0.021-0.062,0.06-0.112,0.101-0.152c0.119-0.428,0.27-0.854,0.479-1.209
			c-0.43,0.047-0.86,0.048-1.271-0.008c-0.199-0.027-0.39-0.069-0.58-0.121c-0.409,0.774-1.17,1.394-1.779,2.009
			c-0.01,0.016-0.01-0.036,0-0.045c0.29-0.38,0.6-0.747,0.88-1.13c0.22-0.295,0.43-0.611,0.66-0.901
			c-0.351-0.115-0.69-0.267-1-0.465c-0.12-0.074-0.17-0.215-0.13-0.349c0.029-0.133,0.149-0.228,0.29-0.232
			c0.96-0.032,1.22-0.862,1.55-2.213c0.04-0.145,0.08-0.293,0.12-0.44c-0.47,0.323-1.021,0.552-1.64,0.688
			c-0.021,0.043-0.051,0.083-0.091,0.114C295.23,396.134,295,397.162,294.75,398.25"/>
		<path fill="#FFDD00" d="M293.25,384.376c-1.92,0.746-3.891,1.506-5.67,1.051c1.3,1.015,2.529,0.716,4,0.361
			c1.229-0.3,2.63-0.64,4.199-0.117c0.011,0.003,0.021,0.012,0.03,0.015c1.351-0.745,2.601-1.456,3.79-2.155
			C297.62,382.676,295.4,383.537,293.25,384.376"/>
		<path fill="#FFDD00" d="M342,381.588c0.02,0.106-0.02,0.217-0.09,0.291c-0.811,0.787-1.73,1.485-2.7,2.13
			c6.72-0.952,13.33-1.672,19.771-4.016c0.01-0.003,0.01,0.037,0,0.042c-6.471,2.796-13.961,4.22-20.98,4.737
			c-1.26,0.745-2.59,1.406-3.92,2.013c1.15-0.11,2.58-0.208,4.189-0.318c10.021-0.681,28.54-1.941,29.48-10.283
			c-3.96,0.391-8.18,1.378-12.27,2.333c-4.811,1.125-9.78,2.279-14.541,2.546c0.291,0.094,0.57,0.187,0.86,0.295
			C341.9,381.396,341.97,381.482,342,381.588"/>
		<path fill="#FFDD00" d="M283.51,414.318c-0.01,0-0.02-0.002-0.02-0.002c-0.141-0.019-0.252-0.117-0.271-0.252
			c-0.03-0.14,0.04-0.281,0.17-0.345c1.15-0.558,1.19-1.341,1.24-2.331c0.021-0.461,0.05-0.943,0.2-1.408
			c-1.33,0.193-2.36,0.557-3.33,1.112c0,0.001,0,0.005,0,0.007c0,0,0,0-0.01,0c-0.75,0.434-1.461,0.979-2.25,1.659
			c-0.141,0.121-0.4,0.4-0.7,0.724c-1.63,1.787-3.34,3.494-4.681,3.18c-0.09-0.021-0.17-0.051-0.25-0.087
			c0.5,1.216,1.5,1.827,2.99,1.825c0.91-0.004,1.94-0.515,2.94-1.01c0.89-0.438,1.8-0.892,2.679-1.024
			c0.031-0.003,0.051,0.003,0.071,0.004c0.22-0.218,0.42-0.45,0.62-0.688c0.399-0.471,0.809-0.949,1.369-1.312
			c-0.1-0.006-0.189-0.013-0.279-0.019L283.51,414.318"/>
		<path fill="#FFDD00" d="M288.38,398.208c1.68,0.567,4,0.757,5.99-1.229c0.02-0.017,0.04-0.025,0.06-0.038
			c0.13-0.416,0.28-0.808,0.49-1.145c-0.8,0.335-1.69,0.477-2.521,0.73c-0.89,0.268-1.779,0.533-2.67,0.8
			c-0.02,0.005-0.01-0.049,0-0.055c1-0.354,2.011-0.672,3-1.067c0.42-0.172,0.841-0.376,1.25-0.577
			c-0.109-0.011-0.22-0.011-0.33-0.026c-0.54-0.073-1.069-0.202-1.59-0.376c0,0,0,0.001-0.01,0c-1.22-0.28-2.16,0.559-3.06,1.365
			c-0.541,0.479-1.091,0.965-1.681,1.178c0.29,0.14,0.62,0.28,0.98,0.406c0.02,0.008,0.04,0.012,0.069,0.018
			C288.37,398.196,288.37,398.204,288.38,398.208"/>
		<path fill="#FFDD00" d="M280.38,402.199c-0.021-0.115,0.04-0.227,0.13-0.292c0.1-0.066,0.22-0.075,0.32-0.023
			c0.97,0.48,1.6-0.288,2.38-1.429l0.21-0.307c0.64-0.91,1.979-1.746,3.279-2.004c-0.5-0.266-0.85-0.498-0.97-0.578
			c0-0.002,0-0.004,0-0.004c-0.02-0.017-0.04-0.026-0.04-0.028c-0.13-0.109-0.149-0.294-0.05-0.427
			c0.101-0.132,0.29-0.165,0.431-0.076c0.109,0.072,0.22,0.119,0.329,0.154c0.16-1.261-0.829-1.987-1.979-2.812
			c-1.021-0.734-2.15-1.547-2.36-2.852c-0.63,1.003-1.04,2.613-0.97,4.022c0.05,0.945,0.31,1.692,0.74,2.158
			c0.1,0.08,0.199,0.166,0.3,0.265c0.01,0.01,0.01,0.02,0.02,0.029c0.011,0.018,0.021,0.035,0.03,0.054s0.02,0.036,0.02,0.054
			c0.011,0.021,0.011,0.039,0.011,0.061c0.01,0.02,0.01,0.04,0,0.059c0,0.021,0,0.039-0.011,0.058c0,0.021-0.01,0.04-0.029,0.062
			c0,0.01,0,0.02-0.01,0.029c0,0.005-0.011,0.007-0.011,0.013c-0.01,0.009-0.02,0.021-0.02,0.029c-0.03,0.026-0.06,0.043-0.09,0.058
			c-0.011,0.002-0.011,0.006-0.021,0.008c-0.04,0.02-0.09,0.023-0.14,0.02c-0.01,0-0.01,0.003-0.021,0.002
			c-0.01-0.001-0.02-0.008-0.029-0.011c-0.03-0.007-0.051-0.019-0.08-0.034c-0.01-0.005-0.021-0.005-0.03-0.012
			c-0.1-0.069-0.19-0.147-0.28-0.232c-0.97-0.786-2.109-0.504-3.42-0.168c-1.09,0.283-2.229,0.573-3.32,0.203
			c0.461,1.339,3,2.622,4.931,3.027c0.17,0.035,0.28,0.203,0.24,0.373c-0.03,0.164-0.19,0.271-0.351,0.248
			c-0.01,0-0.02-0.002-0.02-0.004c-0.311-0.063-0.63-0.148-0.95-0.25c-0.021,0.004-0.04,0.01-0.06,0.01
			c-0.641-0.029-1.381,0.236-2.16,0.518c-0.641,0.229-1.301,0.464-1.931,0.543c1.2,1.508,3.521,2.674,5.32,2.623
			c0.771-0.72,1.75-1.045,2.76-1.227c-0.069-0.026-0.149-0.045-0.21-0.071C281.14,403.57,280.449,402.9,280.38,402.199"/>
		<path fill="#FFDD00" d="M339.32,402.747c0,0.093-0.04,0.181-0.11,0.24c-0.61,0.493-1.29,0.84-2,1.091
			c2.851,0.559,5.59,1.812,8.46,2.338c0.01,0.001,0,0.031-0.01,0.03c-3.141-0.375-6.41-1.109-9.42-2.097
			c-1.32,0.279-2.73,0.271-4.12,0.082c-0.28-0.037-0.55-0.082-0.83-0.133c5.13,2.11,14.71,5.789,18.01,3.045
			c-2.2-2.685-7.21-4.652-10.61-5.263c0.181,0.14,0.351,0.274,0.521,0.423C339.28,402.564,339.32,402.654,339.32,402.747"/>
		<path fill="#FFDD00" d="M285.16,409.299c0.09-0.128,0.199-0.251,0.319-0.371c-0.189-0.007-0.39-0.021-0.579-0.049
			c-0.881-0.119-1.75-0.438-2.511-0.885c-0.88,0.395-1.8,0.714-2.739,0.941c-0.011,0.002,0-0.033,0.01-0.037
			c0.81-0.336,1.59-0.771,2.41-1.105c-0.091-0.059-0.181-0.109-0.271-0.172c-0.12-0.084-0.16-0.236-0.11-0.369
			c0.051-0.133,0.19-0.215,0.33-0.199c0.93,0.096,1.551-0.666,2.271-1.552c0.27-0.323,0.55-0.655,0.86-0.965
			c-0.33,0.021-0.671,0.009-1.011-0.028c-0.01,0.004-0.03,0.014-0.04,0.014l-0.13,0.016c-1.67,0.193-3.39,0.393-4.31,1.836
			c-0.17,0.266-0.33,0.605-0.5,0.967c-0.42,0.912-0.92,2.008-1.91,2.275c1.05,0.931,2.62,1.486,3.99,0.904
			c1.109-0.627,2.3-1.037,3.88-1.223C285.13,409.294,285.15,409.299,285.16,409.299"/>
		<path fill="#FFDD00" d="M333.1,408.328c0.021,0.07,0.01,0.14-0.02,0.202c2.56,0.966,5.09,1.889,7.72,2.716
			c0,0.003,0,0.031-0.01,0.031c-2.82-0.442-5.61-1.379-8.229-2.508c-1.48,0.343-2.971,0.283-4.381-0.018
			c5.51,2.801,12.891,5.113,15.551,4.207c0.369-0.127,0.619-0.309,0.76-0.553c-1.12-2.51-7.2-4.956-11.65-6.751
			c-0.99-0.398-1.88-0.759-2.66-1.093C331.53,405.502,332.74,406.646,333.1,408.328"/>
		<path fill="#FFDD00" d="M350.39,400.132c0.01,0,0.01,0.033,0,0.034c-5.49,0.234-11.479,0.122-16.92-1.15
			c1.57,0.664,2.96,1.402,4.271,2.342c0.02-0.006,0.029-0.016,0.05-0.021c0.02-0.005,0.04-0.005,0.06-0.007
			c0.021-0.003,0.03-0.009,0.05-0.008c0.79,0.054,1.83,0.213,3.03,0.397c4.86,0.74,12.15,1.856,13.72-2.287
			c-1.8-0.449-4.89-0.707-7.88-0.959c-3.32-0.274-6.449-0.537-8.21-1.045c-0.02-0.007-0.04-0.021-0.06-0.035
			c-1.91,0.735-4.051,1.008-6.09,0.977C338.41,399.262,344.3,399.975,350.39,400.132"/>
		<path fill="#FFDD00" d="M336.78,392.402c-0.641,0.191-1.29,0.355-1.921,0.481c1.94,0.369,3.711,1.08,5.671,2.057
			c5.029,0.27,9.8-0.485,14.819-0.823c0-0.001,0,0.035-0.01,0.037c-4.57,0.864-9.28,1.66-13.95,1.375c0,0.004,0,0.006,0,0.009
			c0.011,0.106-0.03,0.21-0.109,0.277c-0.511,0.422-1.08,0.768-1.671,1.074c5.16,0.726,16.24,1.507,20.98-4.092
			c-3.75-0.578-8.31-0.422-12.72-0.267c-0.09,0.003-0.17,0.006-0.261,0.009c-0.539,0.024-1.079,0.043-1.619,0.054
			c-3.301,0.105-6.41,0.15-9.141-0.167C336.83,392.423,336.81,392.412,336.78,392.402"/>
		<path fill="#FFDD00" d="M328.11,377.056c0.06,0.139,0.09,0.293,0.13,0.444c2.02-0.685,4.04-1.275,6.029-2.059
			c0-0.001,0,0.005,0,0.006c-1.939,0.828-3.92,1.857-5.979,2.349c0.09,0.648,0,1.371-0.26,2.1c0.67,0.124,1.22,0.464,1.59,0.967
			c0.02-0.029,0.05-0.054,0.08-0.072l0.12-0.068c3.31-1.865,7.39-4.176,9.109-7.533c-3.39,0.538-7.63,1.331-11.729,2.715
			C327.61,376.191,327.93,376.58,328.11,377.056"/>
		<path fill="#FFDD00" d="M323.27,415.799c1.92,1.219,3.69,2.727,5.57,4.01c0.01,0.004,0,0.039-0.01,0.037
			c-1.91-0.703-3.69-1.949-5.29-3.226c0.19,0.653,0.319,1.313,0.39,1.965c0.01,0.093-0.02,0.183-0.08,0.25
			c-0.07,0.067-0.16,0.103-0.25,0.099c-0.25-0.014-0.49-0.051-0.729-0.084c2.39,1.426,5.85,3.321,7.5,2.771
			c0.37-0.126,0.63-0.375,0.79-0.763c0.39-0.996-2.68-3.381-4.721-4.959c-1.52-1.184-2.84-2.207-3.229-2.885
			c-0.74-0.351-1.46-0.734-2.15-1.113C321.99,413.023,322.75,414.379,323.27,415.799"/>
		<path fill="#FFDD00" d="M329.05,413.505c1.59,0.675,3.109,1.573,4.69,2.287c0.01,0.004-0.01,0.062-0.01,0.06
			c-1.541-0.457-3.16-0.905-4.591-1.647c-0.01,0.021-0.02,0.041-0.03,0.058c-0.05,0.071-0.14,0.114-0.229,0.121
			c-0.84,0.066-1.69-0.023-2.53-0.219c0.061,0.04,0.131,0.078,0.19,0.118c3.649,2.288,7.78,4.877,10.63,2.187
			c0.239-1.047-4.27-3.748-6.98-5.375c-1.51-0.906-2.85-1.709-3.739-2.355C327.72,410.2,328.66,411.896,329.05,413.505"/>
		<path fill="#FFDD00" d="M342.14,389.001c0.07,0.025,0.12,0.081,0.16,0.145c5.16-0.091,10.12-0.535,15.22-1.498
			c0.01-0.001,0.01,0.034,0,0.037c-5.01,1.271-10.26,2.166-15.449,2.003c-0.9,0.844-2.15,1.549-3.541,2.104
			c1.78,0.107,4.28,0.232,7.061,0.182c0.62-0.019,1.25-0.039,1.89-0.062c6.181-0.298,13.08-1.611,15.88-5.878
			c-2.569-0.266-5.75-0.16-8.819-0.057c-1.67,0.055-3.25,0.108-4.641,0.097c-0.029-0.001-0.06-0.011-0.09-0.021
			c-4.05,0.535-8.12,0.814-11.5,1.044c-0.87,0.059-1.68,0.114-2.43,0.17c2.17,0.343,4.34,1.081,6.05,1.664L342.14,389.001"/>
		<path fill="#FFDD00" d="M287.92,407.037c0.01-0.131,0.1-0.244,0.22-0.282c0.79-0.241,1.32-1.13,1.89-2.069
			c0.061-0.093,0.11-0.187,0.17-0.28c-0.43,0.194-0.869,0.379-1.289,0.606c-0.65,0.365-1.311,0.735-1.98,1.078
			c0,0.002,0-0.01,0.01-0.012c0.75-0.43,1.49-0.889,2.23-1.35c0.38-0.235,0.779-0.506,1.189-0.729c-0.619,0.2-1.17,0.223-1.699,0.15
			c-0.271-0.036-0.53-0.096-0.801-0.166c-0.039,0.02-0.09,0.033-0.14,0.029c-1.34-0.062-2.149,0.93-2.94,1.887
			c-0.56,0.684-1.129,1.384-1.89,1.664c1.15,0.619,2.521,0.908,3.71,0.634c0.23-0.099,0.471-0.193,0.75-0.278
			c0.01-0.004,0.03-0.002,0.04-0.004c0.28-0.141,0.55-0.32,0.79-0.547c-0.029-0.01-0.05-0.014-0.07-0.025
			C287.99,407.291,287.91,407.168,287.92,407.037"/>
		<path fill="#FFDD00" d="M330.87,388.183c-0.06,0.025-0.13,0.044-0.19,0.07c0,0,0,0,0,0.001c-0.26,0.492-0.63,0.931-1.09,1.252
			c0.25,0.171,0.46,0.366,0.65,0.577c2.25-0.36,4.66-0.19,6.939-0.28c0.01-0.001,0,0.075-0.01,0.079
			c-2.15,0.38-4.47,0.522-6.67,0.527c0.46,0.645,0.68,1.398,0.55,2.118c0,0.029-0.01,0.055-0.02,0.084
			c0.02-0.003,0.03-0.009,0.04-0.009c0.41-0.012,0.8-0.012,1.18-0.001c2.78-0.148,6.97-1.268,9.189-3.173
			c-3.01-1.024-7.319-2.421-10.399-1.308l-0.14,0.059C330.89,388.183,330.88,388.179,330.87,388.183"/>
		<path fill="#FFDD00" d="M312.67,372.212c0.57-1.58-0.13-3.235-1.17-4.382c0.07,1.11-0.551,1.971-1.16,2.809
			c-0.46,0.621-0.87,1.215-1.04,1.906c0.7,0.185,1.33,0.62,1.79,1.54c0.43-0.628,0.99-1.174,1.58-1.695
			C312.65,372.332,312.65,372.272,312.67,372.212"/>
		<path fill="#FFDD00" d="M280.47,396.33c-0.12-0.851-0.66-1.529-1.43-1.827c-0.011,0.098-0.011,0.196-0.03,0.293
			c-0.04,0.439-0.23,0.759-0.41,0.962c-0.31,0.363-0.77,0.59-1.21,0.605c-0.02,0.001-0.04,0-0.06-0.002
			c-0.15-0.02-0.271-0.145-0.271-0.301c-0.01-0.174,0.13-0.319,0.3-0.326c0.28-0.01,0.57-0.159,0.771-0.39
			c0.14-0.166,0.31-0.454,0.26-0.882c-0.01-0.06,0.011-0.116,0.03-0.167c0.01-0.851-0.43-1.64-1.13-2.028
			c-0.22,0.324-0.55,0.67-1.03,1.021c-0.07,0.05-0.15,0.069-0.23,0.058c-0.079-0.011-0.159-0.054-0.209-0.126
			c-0.101-0.14-0.07-0.338,0.069-0.441c0.82-0.596,1.21-1.225,1.15-1.818c-0.061-0.53-0.5-1.028-1.19-1.34
			c-0.3,0.351-0.76,0.649-1.399,0.887c-0.05,0.019-0.101,0.025-0.16,0.018c-0.11-0.015-0.21-0.09-0.25-0.203
			c-0.061-0.164,0.02-0.344,0.189-0.406c0.58-0.217,1.29-0.598,1.36-1.179c0.061-0.511-0.38-1.16-1.2-1.765
			c-0.229,0.367-0.5,0.683-0.819,0.95c-0.07,0.059-0.16,0.082-0.24,0.07c-0.08-0.01-0.15-0.048-0.2-0.111
			c-0.12-0.134-0.101-0.333,0.04-0.444c0.43-0.357,0.75-0.814,1.01-1.413c0.19-0.749,0.07-1.167-0.521-1.907
			c-0.039-0.014-0.069-0.036-0.109-0.066c-0.84-0.804-1.729-0.031-1.74-0.022c-0.069,0.062-0.159,0.089-0.25,0.077
			c-0.069-0.01-0.14-0.044-0.2-0.103c-0.109-0.13-0.1-0.329,0.03-0.446c0.46-0.407,1.36-0.741,2.2-0.257
			c0.33-0.388,0.46-1.194,0.29-1.872c-0.11-0.42-0.31-0.699-0.55-0.743c-0.021-0.003-0.04-0.017-0.051-0.025
			c-0.539,0-0.75,0.004-1.069,0.218c-0.07,0.044-0.15,0.06-0.22,0.05c-0.09-0.012-0.17-0.059-0.221-0.138
			c-0.1-0.145-0.06-0.341,0.09-0.437c0.461-0.305,0.811-0.322,1.351-0.323c0.26-0.62,0.16-1.448-0.28-1.971
			c-0.291-0.345-0.83-0.684-1.75-0.336c-0.16,0.061-0.35-0.021-0.41-0.185c-0.06-0.164,0.021-0.345,0.19-0.406
			c0.37-0.142,0.74-0.198,1.08-0.176c0-0.004,0-0.01,0.01-0.015c0.479-0.477,0.3-1.128,0.01-1.54c-0.45-0.614-1.319-1.02-2.27-0.537
			c-0.151,0.078-0.34,0.017-0.42-0.138c-0.08-0.156-0.021-0.346,0.14-0.425c0.391-0.201,0.78-0.274,1.149-0.268
			c-0.31-0.707-0.8-1.131-1.419-1.232c-0.011-0.003-0.03-0.006-0.051-0.007c-0.81-0.111-1.619,0.346-2,0.865
			c-0.17,0.22-0.399,0.66-0.17,1.132c0.23,0.465,0.46,0.55,0.771,0.669c0.42,0.159,0.939,0.357,1.369,1.448
			c0.351,0.878,0.82,2.598,0.391,3.473c-0.06,0.12-0.19,0.19-0.32,0.173c-0.13-0.018-0.239-0.117-0.27-0.248
			c-0.271-1.289-1.31-1.436-1.63-1.451c-0.67-0.029-1.29,0.29-1.43,0.743c-0.051,0.167-0.23,0.26-0.391,0.21
			c-0.17-0.052-0.26-0.228-0.21-0.395c0.16-0.517,0.64-0.913,1.25-1.088c-0.32-0.654-0.79-0.981-1.32-0.927
			c-0.609,0.062-1.149,0.604-1.26,1.26c-0.03,0.168-0.19,0.282-0.36,0.259c0,0,0-0.001-0.01-0.001
			c-0.17-0.029-0.279-0.192-0.25-0.364c0.11-0.693,0.58-1.296,1.18-1.594c-0.42-0.557-0.92-0.796-1.399-0.669
			c-0.521,0.135-0.95,0.659-1,1.22c-0.01,0.174-0.17,0.302-0.34,0.285l-0.011-0.001c-0.17-0.023-0.289-0.171-0.27-0.34
			c0.05-0.561,0.35-1.081,0.78-1.423c-0.92-0.691-1.79-0.014-2.14,0.33c-0.931,0.928-1.4,2.565-0.58,3.432
			c0.51,0.529,1.289,0.449,2.119,0.363c0.461-0.047,0.931-0.095,1.37-0.04c1.561,0.212,3.65,1.137,4.5,2.731
			c0.07,0.137,0.03,0.306-0.09,0.401c-0.12,0.093-0.3,0.084-0.41-0.023c-0.26-0.247-0.6-0.342-0.93-0.259
			c-0.36,0.089-0.66,0.372-0.79,0.755c-0.05,0.164-0.24,0.246-0.4,0.198c-0.16-0.054-0.25-0.231-0.199-0.396
			c0.1-0.294,0.16-0.701-0.09-0.966c-0.2-0.22-0.591-0.301-0.98-0.206c-0.44,0.104-0.79,0.38-0.97,0.759
			c-0.03,0.089-0.061,0.18-0.11,0.272c-0.061,0.151-0.24,0.224-0.39,0.167c-0.16-0.057-0.24-0.224-0.2-0.383
			c0.029-0.1,0.07-0.196,0.109-0.288c0.07-0.261,0.08-0.548-0.14-0.753c-0.28-0.266-0.83-0.302-1.25-0.085
			c-0.26,0.134-0.68,0.475-0.58,1.256c0.03,0.173-0.09,0.332-0.26,0.356c-0.03,0.004-0.06,0.004-0.09,0
			c-0.14-0.018-0.25-0.125-0.271-0.269c-0.06-0.455,0.01-0.87,0.2-1.215c-0.27-0.273-0.569-0.336-0.91-0.174
			c-0.689,0.323-1.37,1.467-1.21,2.459c0.13,0.776,0.75,1.25,1.81,1.376c0.811,0.094,1.641-0.088,2.431-0.264
			c1.65-0.364,3.36-0.742,4.74,1.428c0.76,1.758-0.13,2.372-0.99,2.965c-0.12,0.083-0.25,0.168-0.37,0.258
			c-0.44,0.324-0.67,0.597-0.71,0.859c-0.05,0.354,0.23,0.805,0.66,1.373c0.51,0.683,1.38,1.357,2.14,1.325
			c0.41-0.017,0.761-0.248,1.03-0.685c0.48-0.769,0.13-1.241-0.53-2.01c-0.08-0.091-0.159-0.182-0.239-0.274
			c-0.11-0.134-0.091-0.333,0.039-0.445c0.141-0.111,0.33-0.093,0.45,0.041c0.07,0.089,0.15,0.178,0.22,0.265
			c0.171,0.198,0.351,0.404,0.5,0.621c0.021-0.008,0.041-0.021,0.07-0.025c0.801-0.145,1.4-0.629,1.561-1.263
			c0.14-0.55-0.08-1.109-0.61-1.534c-0.14-0.109-0.161-0.308-0.05-0.443c0.109-0.136,0.31-0.157,0.439-0.049
			c0.721,0.577,1.03,1.393,0.83,2.181c0,0.028-0.02,0.054-0.029,0.08c1.01,1.723,2.229,3.546,3.31,5.16
			c0.589,0.884,1.15,1.72,1.57,2.391c0.64-0.007,1.31-0.175,1.989-0.351c0.98-0.254,1.98-0.51,2.92-0.268
			c-0.079-0.201-0.149-0.414-0.199-0.645C280.529,396.472,280.479,396.41,280.47,396.33"/>
		<path fill="#FFDD00" d="M323.34,486.04c-0.02,0.442-0.12,0.867-0.29,1.244c0.55-0.388,1.04-0.945,1.36-1.601
			c0.42-0.863,0.51-1.774,0.25-2.543c-0.54,0.602-1.21,0.906-1.92,0.855C323.16,484.541,323.38,485.257,323.34,486.04"/>
		<path fill="#FFDD00" d="M306.05,405.607c0.17-0.053,0.34-0.109,0.51-0.168c-0.189-0.051-0.38-0.112-0.56-0.185
			C306.02,405.373,306.04,405.49,306.05,405.607"/>
		<path fill="#FFDD00" d="M292.32,420.16c-0.11,0.008-0.23,0.021-0.351,0.025c-0.02-0.002-0.03-0.004-0.05-0.006
			c-0.07-0.009-0.13-0.041-0.18-0.092c-0.061-0.062-0.101-0.146-0.09-0.234c0.01-0.379,0.02-0.761,0.029-1.138
			c-0.96,1.545-2.75,2.41-5.1,2.384c-0.01,0-0.02,0-0.04-0.002c-0.11-0.016-0.2-0.091-0.25-0.197c-0.04-0.119-0.01-0.256,0.08-0.344
			c0.18-0.168,0.3-0.343,0.41-0.517c-2.15,0.761-3.11,2.403-2.931,5.008c0.021,0.198,0.04,0.415,0.07,0.644
			c0.11,0.983,0.24,2.096-0.33,2.772c1.04-0.022,1.99-0.294,2.811-1.216c0.47-0.523,0.779-1.143,1.09-1.743
			c0.67-1.334,1.359-2.711,3.699-2.422C291.27,422.023,291.6,420.923,292.32,420.16"/>
		<path fill="#FFDD00" d="M278.27,420.445c-0.859,0.076-1.55,0.494-1.77,1.066c-0.15,0.389-0.04,0.79,0.29,1.165
			c0.26,0.138,0.5,0.196,0.71,0.149c0.41-0.094,0.75-0.562,1.06-1.135c-0.02-0.021-0.05-0.034-0.06-0.062
			C278.29,421.25,278.23,420.84,278.27,420.445"/>
		<path fill="#FFDD00" d="M279.39,419.436c-0.37,0.369-0.6,0.971-0.47,1.533c0.01-0.025,0.029-0.051,0.04-0.076
			c0.36-0.752,0.71-1.467,1.2-1.855C279.79,419.083,279.52,419.305,279.39,419.436"/>
		<path fill="#FFDD00" d="M312.64,414.4c-0.03,0.201-0.08,0.392-0.149,0.574c0.43,0.633,0.81,1.295,1.27,1.904
			c0.53,0.697,1.12,1.346,1.65,2.038c0.01,0.017-0.011,0.099-0.021,0.087c-1.069-1.093-2.33-2.201-3.14-3.531
			c-0.271,0.453-0.68,0.818-1.19,1.043c-0.1,0.047-0.21,0.084-0.319,0.116c0.26,1.636,2.31,3.146,6.13,4.49
			c-0.04-2.274-0.71-4.5-1.95-6.462c-0.04-0.059-0.05-0.126-0.04-0.191C314.14,414.77,313.35,414.748,312.64,414.4"/>
		<path fill="#FFDD00" d="M290.22,399.239c-0.85,0.159-1.46,1.161-2.06,2.129c-0.391,0.638-0.79,1.289-1.28,1.685
			c0.17,0.047,0.33,0.094,0.49,0.139c1.409,0.414,2.34,0.685,3.989-0.383c0.011-0.004,0.021-0.004,0.021-0.008
			c0.33-0.333,0.72-0.604,1.16-0.789c-0.14-0.06-0.271-0.121-0.39-0.189c-0.121-0.062-0.181-0.186-0.16-0.315
			c0.01-0.128,0.1-0.233,0.229-0.266c1.15-0.304,1.521-1.404,1.81-2.648c-1.329,1.159-2.949,2.118-4.409,3.076
			c-0.011,0.003-0.011-0.015,0-0.017c1.46-1.254,3.04-2.391,4.54-3.613c0-0.014,0-0.025,0-0.039c-1.25,0.967-2.59,1.252-3.83,1.197
			C290.3,399.216,290.26,399.232,290.22,399.239"/>
		<path fill="#FFDD00" d="M291.18,423.715C291.18,423.714,291.18,423.714,291.18,423.715c-0.1-0.014-0.18-0.021-0.271-0.027
			c0.092,0.235,0.191,0.461,0.312,0.682C291.199,424.159,291.189,423.939,291.18,423.715"/>
		<path fill="#FFDD00" d="M285.439,403.045c0.03-0.167,0.19-0.279,0.351-0.257c0.01,0.002,0.02,0.003,0.02,0.003
			c0.681,0.091,1.23-0.805,1.811-1.753c0.01-0.007,0.01-0.015,0.02-0.021c-1.02,0.521-2.09,0.916-3.17,1.313
			c-0.01,0.003,0-0.026,0.01-0.03c1.23-0.607,2.4-1.328,3.61-1.992c0.32-0.486,0.68-0.939,1.109-1.262
			c-0.329-0.068-0.659-0.148-0.949-0.246c-0.04-0.001-0.07-0.001-0.09-0.01c-1.29-0.434-3.44,0.604-4.221,1.72l-0.21,0.3
			c-0.55,0.797-1.319,1.934-2.46,1.848c0.26,0.289,0.69,0.568,1.24,0.794c1.21,0.5,2.9,0.677,3.85,0.116
			c-0.209-0.055-0.43-0.11-0.67-0.158C285.52,403.376,285.41,403.214,285.439,403.045"/>
		<path fill="#FFDD00" d="M303.03,398.283c0,0.837,0,1.695-0.36,2.318c1.65-0.113,3.63-1.155,4.32-2.78c0-0.128,0-0.253,0-0.374
			c-0.25,0.102-0.49,0.189-0.71,0.264c-0.05,0.016-0.091,0.02-0.141,0.014c-0.069-0.011-0.14-0.043-0.189-0.098
			c-0.08-0.089-0.11-0.22-0.061-0.333c0.25-0.623,0.15-1.211,0.05-1.835c-0.039-0.2-0.069-0.406-0.1-0.616
			c-0.42,1.141-1.07,2.219-1.59,3.303c-0.01,0.013-0.01-0.004-0.01-0.012c0.49-1.344,1.149-2.577,1.54-3.938
			c-0.601,0.502-1.32,0.913-2.101,1.228c-0.01,0.016-0.02,0.035-0.029,0.051C303.03,396.177,303.03,397.247,303.03,398.283"/>
		<path fill="#FFDD00" d="M295.63,418.904c-0.06,0.041-0.11,0.085-0.17,0.123c-0.58,1.019-1.17,2.027-1.72,3.06
			c-0.021,0.032-0.021-0.014-0.011-0.03c0.47-0.953,0.94-1.916,1.45-2.852c-0.439,0.273-0.91,0.503-1.41,0.668
			c-0.029,0.064-0.08,0.12-0.16,0.148c-1.5,0.623-2,2.678-1.739,4.438c0.2-0.066,0.409-0.132,0.64-0.202
			c1.561-0.476,3.49-1.067,3.53-2.739c0-0.037,0.01-0.072,0.02-0.105C295.75,420.664,295.49,419.841,295.63,418.904"/>
		<path fill="#FFDD00" d="M290.77,408.146c-1.359,1.125-2.75,2.158-4,3.438c0,0.004,0-0.009,0-0.011
			c1.17-1.275,2.42-2.633,3.801-3.703c-0.261-0.01-0.511-0.028-0.771-0.062c-0.33-0.045-0.649-0.119-0.97-0.207
			c-0.561,0.625-1.26,1.002-2.01,1.188c-1.461,0.659-1.511,1.582-1.561,2.631c-0.04,0.782-0.08,1.645-0.8,2.33
			c2.22,0.141,4.771,0.157,5.29-2.396c0.01-0.035,0.02-0.064,0.04-0.094c0.02-0.13,0.04-0.263,0.06-0.396
			C289.98,409.93,290.13,408.928,290.77,408.146"/>
		<path fill="#FFDD00" d="M292.61,413.857c-0.371,0.153-0.75,0.271-1.13,0.351c-0.931,0.995-1.73,1.991-2.42,3.204
			c0,0.005,0-0.007,0-0.01c0.52-0.969,1.109-2.199,1.899-3.11c-0.56,0.071-1.11,0.071-1.61,0.003
			c-0.16-0.023-0.319-0.056-0.47-0.092c-1.979,0.727-1.75,1.729-1.42,3.109c0.24,0.992,0.5,2.098-0.18,3.133
			c1.55-0.121,3.979-0.787,4.47-3.706c0.01-0.027,0.02-0.052,0.03-0.078C291.88,415.702,292.1,414.755,292.61,413.857"/>
		<path fill="#FFDD00" d="M290.57,405.01c-0.471,0.785-0.92,1.537-1.551,1.996c2.011,0.582,4.45,0.055,5.59-0.904
			c0.011-0.054,0.03-0.11,0.051-0.158c0.609-1.379,2.27-3.37,3.57-3.547c-0.011-0.164-0.03-0.324-0.051-0.485
			c-0.01-0.093-0.02-0.21-0.01-0.343c-0.25,0.24-0.55,0.44-0.9,0.595c-0.319,0.144-0.689,0.229-1.06,0.292
			c-1.01,1.209-2.62,1.988-3.84,2.965c0,0.004,0-0.009,0-0.01c0.71-0.61,1.42-1.23,2.12-1.848c0.371-0.326,0.75-0.698,1.14-1.037
			c-0.45,0.027-0.91,0.016-1.36-0.045c-0.189-0.026-0.38-0.061-0.56-0.102c-0.03,0.008-0.05,0.018-0.08,0.02
			C292.1,402.475,291.32,403.764,290.57,405.01"/>
		<path fill="#FFDD00" d="M301.12,390.821c-0.17-0.033-0.34-0.206-0.31-0.373c0.02-0.146,0.189-0.247,0.34-0.259
			c0.89-0.317,0.949-1.036,0.89-2.15c-0.22,0.214-0.46,0.411-0.69,0.608c-0.47,0.406-0.949,0.785-1.439,1.169
			c-0.01,0.007-0.01-0.017,0-0.022c0.479-0.5,0.95-1.017,1.41-1.534c0.22-0.257,0.449-0.57,0.689-0.846
			c-0.02-0.495-0.01-1.001,0.13-1.47c-0.71,0.258-1.279,1.067-1.88,1.922c-0.859,1.225-1.81,2.59-3.43,2.771
			c2.37,1.965,3.46,1.67,4.95,0.37c-0.22-0.045-0.44-0.101-0.65-0.185L301.12,390.821"/>
		<path fill="#FFDD00" d="M320.97,407.896c1.771,1.047,3.351,2.457,5.08,3.549c0.021,0.011-0.01,0.094-0.021,0.092
			c-1.949-0.971-3.859-2.137-5.689-3.316c-0.05,0.771-0.36,1.523-0.87,2.105c0.45,0.236,0.92,0.492,1.41,0.758
			c2.36,1.291,5.009,2.747,7.6,2.688c-0.649-2.828-3.07-5.629-5.22-6.996c-0.03-0.019-0.05-0.043-0.07-0.068
			c-0.109,0.18-0.239,0.35-0.39,0.497C322.3,407.696,321.67,407.928,320.97,407.896"/>
		<path fill="#FFDD00" d="M324.23,403.9c1.899,1.093,3.879,1.906,5.879,2.839c0.021,0.009,0,0.102-0.02,0.098
			c-2.16-0.623-4.51-1.249-6.4-2.53c0.08,0.658,0,1.318-0.229,1.892c0.04,0.003,0.09,0.014,0.13,0.039
			c2.25,1.308,5.58,2.682,8.82,1.93c-0.561-1.918-2.43-3.044-4.23-4.134c-0.63-0.377-1.22-0.733-1.76-1.123
			c-0.03-0.023-0.061-0.053-0.08-0.083c-0.07-0.031-0.15-0.062-0.22-0.09c-0.011-0.003-0.011-0.005-0.011-0.007
			C325.609,403.414,324.939,403.814,324.23,403.9"/>
		<path fill="#FFDD00" d="M327.15,399.286c1.189,0.315,2.34,0.856,3.479,1.298c1.41,0.547,2.86,1.018,4.22,1.67
			c0.01,0.001,0,0.014,0,0.012c-1.46-0.289-2.87-0.806-4.29-1.235c-1.3-0.392-2.659-0.708-3.899-1.276
			c0.27,0.782,0.13,1.682-0.23,2.43c2.55,1.034,8.561,3.028,12.07,0.547c-2.7-2.238-5.41-3.36-9.68-4.715
			c-0.08-0.022-0.131-0.072-0.17-0.131C328.29,398.537,327.77,399.016,327.15,399.286"/>
		<path fill="#FFDD00" d="M312.25,392.452c0.15,0.464,0.26,0.925,0.38,1.397c0,0.008,0,0.05-0.021,0.031
			c-0.35-0.581-0.729-1.2-0.939-1.862c-0.35,0.265-0.73,0.483-1.13,0.656c0.18,0.951,0.489,1.402,1.05,1.962
			c0.01,0.008,0.02,0.018,0.02,0.027c0.011,0.005,0.021,0.006,0.021,0.013c0.3,0.421,0.79,0.646,1.351,0.629
			c0.579-0.016,1.159-0.287,1.56-0.713c-1.32-0.757-1.8-2.376-1.73-3.698c-0.239,0.31-0.51,0.594-0.81,0.85
			C312.09,391.98,312.17,392.222,312.25,392.452"/>
		<path fill="#FFDD00" d="M328.85,394.538c0.09,0.22,0.16,0.454,0.2,0.695c0.021-0.025,0.04-0.044,0.06-0.043
			c2.36,0.111,4.671,0.449,7.051,0.391c0-0.001,0,0.023-0.01,0.024c-2.301,0.299-4.711,0.343-7.03,0.121
			c0.04,0.563-0.05,1.144-0.25,1.681c0.03-0.004,0.05-0.009,0.08-0.005l0.26,0.035c3.479,0.625,8.18,0.455,11.28-1.811
			c-2.83-1.431-5.21-2.299-8.271-2.395c-0.42,0.021-0.81,0.021-1.159-0.001c-0.08-0.004-0.15-0.042-0.211-0.099
			C330.51,393.83,329.82,394.324,328.85,394.538"/>
		<path fill="#FFDD00" d="M305.12,404.893c-0.04-0.037-0.07-0.082-0.09-0.131c-0.49-0.322-0.9-0.72-1.181-1.169
			c-0.14,0.929-0.359,1.853-0.529,2.771c0.14-0.036,0.27-0.072,0.41-0.109c0.569-0.151,1.149-0.303,1.709-0.465
			c-0.01-0.032-0.01-0.065-0.02-0.097C305.38,405.294,305.34,405.078,305.12,404.893"/>
		<path fill="#FFDD00" d="M316.79,411.223c0.02,0.17,0.03,0.334,0.03,0.498c1.569,1.09,2.75,2.825,4.18,4.088
			c0.01,0.004,0,0.025,0,0.023c-1.43-1.15-2.87-2.352-4.25-3.568c-0.16,0.727-0.6,1.355-1.12,1.77c-0.09,0.07-0.19,0.133-0.28,0.191
			c0.01,0.01,0.03,0.019,0.051,0.032c1.529,1.382,4.529,3.687,7.859,4.019c-0.42-2.866-2.08-5.832-4.229-7.476
			c-0.021-0.009-0.021-0.022-0.03-0.034c-0.03,0.019-0.05,0.039-0.07,0.056C318.25,411.303,317.5,411.438,316.79,411.223"/>
		<path fill="#FFDD00" d="M287.05,418.521c-0.74,0.802-1.93,1.748-3.42,1.732c-0.14-0.001-0.29-0.011-0.43-0.031
			c-0.601-0.08-1.181-0.322-1.74-0.719c-0.04-0.002-0.09-0.012-0.13-0.031c-0.21-0.106-0.391-0.131-0.561-0.076
			c-0.47,0.164-0.859,0.979-1.239,1.769c-0.49,1.021-1,2.074-1.9,2.276c-0.34,0.078-0.7,0.021-1.08-0.17
			c0.16,0.672,0.55,1.074,1.19,1.222c1.99,0.465,5.43-1.662,6.21-3.117c0.03-0.046,0.069-0.08,0.109-0.108
			c0.641-0.938,1.641-1.596,2.99-1.974C287.09,419.042,287.08,418.785,287.05,418.521"/>
		<path fill="#FFDD00" d="M275.811,421.734c-0.98-0.028-1.621,0.555-1.811,1.191c-0.21,0.649-0.04,1.547,1.061,2.125
			c0.149,0.081,0.209,0.272,0.129,0.426c-0.06,0.121-0.199,0.184-0.319,0.166c-0.04-0.006-0.07-0.017-0.11-0.035
			c-1.3-0.69-1.58-1.791-1.42-2.627c-1.57-0.063-1.79,0.951-1.81,1.273c-0.061,0.662,0.31,1.411,1.01,1.471
			c0.19,0.015,0.3,0.17,0.28,0.342c-0.021,0.174-0.17,0.301-0.34,0.287c-0.03-0.002-0.051-0.006-0.08-0.01
			c-1.03-0.14-1.59-1.205-1.5-2.144c0-0.019,0-0.038,0.01-0.058c-0.04,0.002-0.08-0.002-0.12-0.014c-0.5-0.17-0.92-0.126-1.2,0.129
			c-0.32,0.279-0.45,0.797-0.34,1.316c0.14,0.631,0.58,1.107,1.21,1.305c0.16,0.053,0.26,0.229,0.2,0.396
			c-0.04,0.148-0.19,0.238-0.34,0.217c-0.021-0.001-0.04-0.006-0.051-0.012c-0.84-0.265-1.449-0.928-1.63-1.774
			c-0.06-0.261-0.06-0.513-0.03-0.757c-0.189,0.025-0.359,0.025-0.529,0.005c-0.34-0.049-0.641-0.183-0.92-0.31
			c-0.34-0.153-0.641-0.283-1.01-0.265c0.17,0.537,0.229,1.112,0.209,1.589c-0.01,0.176-0.149,0.311-0.329,0.305
			c-0.011,0-0.021-0.002-0.03-0.002c-0.16-0.021-0.27-0.16-0.27-0.324c0.029-0.859-0.211-1.938-0.82-2.41
			c-0.311-0.24-0.69-0.298-1.15-0.195c0.09,0.499,0.021,1.028-0.24,1.49c-0.06,0.117-0.189,0.175-0.31,0.158
			c-0.04-0.006-0.08-0.018-0.12-0.037c-0.15-0.086-0.2-0.278-0.12-0.43c0.351-0.619,0.24-1.405-0.27-1.911
			c-0.45-0.444-1.05-0.532-1.69-0.259c0.061,0.16,0.11,0.33,0.141,0.52c0.09,0.635-0.061,1.545-0.541,2.055
			c-0.119,0.129-0.319,0.135-0.449,0.016c-0.12-0.119-0.13-0.318-0.01-0.446c0.319-0.342,0.439-1.063,0.38-1.533
			c-0.141-0.958-0.841-1.383-1.47-1.383c-0.561,0-1.261,0.354-1.4,1.345c-0.13,0.937,0.26,2.252,0.859,2.874
			c0.461,0.481,0.761,0.448,1.221,0.398c0.3-0.032,0.649-0.062,1.08,0.054c0.88-0.783,2.189-0.809,2.96-0.652
			c1.21,0.246,1.85,1.058,1.97,2.479c0.02,0.174-0.11,0.326-0.29,0.341c-0.021,0.001-0.04,0.001-0.07-0.002
			c-0.14-0.021-0.25-0.136-0.27-0.286c-0.09-1.15-0.53-1.723-1.47-1.913c-0.69-0.143-1.92-0.128-2.59,0.671
			c0.829,0.223,1.6,0.795,1.89,1.754c0.05,0.168-0.05,0.344-0.21,0.394c-0.17,0.051-0.351-0.043-0.4-0.211
			c-0.25-0.849-1.01-1.302-1.77-1.396c-0.051,0.006-0.101,0.002-0.15-0.019c-0.14-0.009-0.28-0.009-0.41,0.006
			c-0.5,0.054-1.029,0.292-1.16,0.786c1.051,0.227,2.021,1.218,2.211,2.343c0.029,0.171-0.091,0.334-0.261,0.363
			c-0.17,0.03-0.33-0.085-0.36-0.259c-0.18-1.035-1.189-1.84-1.979-1.87c-0.55-0.021-0.94,0.333-1.11,1.022
			c0,0.006,0,0.016,0.01,0.025c0.03,0.025,0.061,0.052,0.08,0.085c0.041,0.036,0.061,0.077,0.07,0.12
			c0.16,0.146,0.41,0.318,0.59,0.441c0.601,0.404,1.271,0.864,1.381,1.559c0.029,0.173-0.091,0.334-0.261,0.361
			c-0.03,0.004-0.06,0.004-0.09,0c-0.14-0.019-0.25-0.123-0.271-0.264c-0.069-0.424-0.619-0.801-1.109-1.135
			c-0.36-0.246-0.71-0.482-0.9-0.759c-0.189-0.104-0.43,0.015-0.609,0.149c-0.57,0.426-0.99,1.342-0.67,1.838
			c0.199,0.312,0.56,0.494,0.93,0.687c0.62,0.312,1.37,0.694,1.52,1.771c0.4,0.127,0.75,0.123,1.07-0.016
			c0.77-0.337,1.18-1.414,1.42-2.059l0.04-0.094c0.7-1.834,2.95-3.539,5-3.066c0.03,0.008,0.06,0.025,0.09,0.042
			c0.261-0.161,0.57-0.287,0.931-0.363c0.17-0.038,0.34,0.07,0.369,0.241c0.041,0.17-0.069,0.338-0.239,0.374
			c-0.58,0.125-1,0.384-1.17,0.727c-0.141,0.265-0.12,0.587,0.03,0.951c0.659-0.003,1.35,0.263,1.77,0.865
			c0.1,0.142,0.07,0.339-0.08,0.438c-0.141,0.101-0.33,0.065-0.439-0.078c-0.461-0.672-1.48-0.754-2.08-0.375
			c-0.511,0.326-0.591,0.922-0.25,1.655c0.01,0,0.01-0.004,0.02-0.004c0.99-0.005,1.859,0.44,2.76,1.397
			c0.12,0.127,0.11,0.328-0.01,0.447c-0.13,0.117-0.33,0.11-0.45-0.016c-0.75-0.799-1.47-1.18-2.229-1.197
			c-0.48,0.228-1.03,0.615-1.061,1.215c-0.02,0.621,0.51,1.35,1.34,1.814c0.5,0.282,1.17,0.479,1.79,0.377
			c0.021-0.011,0.03-0.023,0.05-0.034c0.061-0.024,0.121-0.026,0.17-0.021c0.16-0.047,0.32-0.11,0.461-0.207
			c0.55-0.368,0.569-1.42,0.58-2.534c0.029-1.66,0.06-3.703,2.16-3.913c0-0.013-0.011-0.021-0.011-0.035
			c0.021-0.173,0.17-0.303,0.34-0.29c0.61,0.043,1.07,0.247,1.37,0.601c0.53,0.621,0.44,1.553,0.37,2.375
			c-0.04,0.468-0.09,0.91,0,1.189c0.14,0.502,0.61,0.971,1.26,1.252c0.61,0.266,1.23,0.297,1.71,0.107c0-0.001,0-0.004,0.01-0.006
			c0.891-0.252,1.291-0.877,1.371-1.379c0.05-0.375-0.061-0.713-0.291-0.863c-0.27-0.176-0.699-0.098-1.189,0.216
			c-0.15,0.095-0.34,0.051-0.439-0.096c-0.091-0.147-0.051-0.343,0.1-0.437c0.609-0.387,1.08-0.445,1.42-0.389
			c0.14-0.598,0.16-1.273-0.35-1.594c-0.65-0.402-1.891-0.117-2.291,0.27c-0.129,0.12-0.33,0.116-0.449-0.011
			c-0.12-0.125-0.12-0.325,0.01-0.446c0.43-0.41,1.4-0.732,2.26-0.619c-0.22-0.879-1.46-1.402-2.01-1.632
			c-0.05-0.022-0.1-0.042-0.141-0.06c0,0.003-0.01,0.006-0.01,0.009l-0.02-0.022c-0.04-0.016-0.07-0.031-0.09-0.045
			c-0.09-0.045-0.15-0.125-0.16-0.217l-0.17-0.17c1.52-1.396,3.08-2.826,4.93-3.854c-0.77-0.178-1.689-0.752-1.75-2.461
			c-0.01-0.078,0.03-0.145,0.07-0.203C275.83,422.21,275.79,421.971,275.811,421.734"/>
		<path fill="#FFDD00" d="M263.75,437.544c-0.61,1.226-0.74,2.674-0.34,3.927c0.34,1.062,1.05,1.945,2.07,2.586
			c-0.341-1.613-0.65-4.132,0.39-5.468c-0.44-0.06-0.9-0.213-1.33-0.458C264.24,437.962,263.97,437.762,263.75,437.544"/>
		<path fill="#FFDD00" d="M299.93,392.762c-1.21,0.247-1.5,1.426-1.81,2.674c-0.24,0.951-0.5,2-1.29,2.458
			c0.85,0.309,1.83,0.326,2.8,0.055c0.08-0.038,0.16-0.069,0.24-0.09c0.02-0.006,0.04-0.002,0.06-0.002
			c1.13-0.389,2.08-1.131,2.65-2.062c-0.75,0.199-1.561,0.315-2.391,0.336c-0.149,0.001-0.279-0.094-0.31-0.235
			c-0.01-0.017-0.01-0.035-0.01-0.052c-0.37,0.311-0.74,0.607-1.05,0.9c-0.021,0.019-0.021-0.046-0.011-0.056
			c0.431-0.606,1.011-1.038,1.53-1.555c0.17-0.167,0.34-0.341,0.5-0.525c0.2-0.4,0.37-0.875,0.55-1.364
			c0.2-0.571,0.4-1.151,0.69-1.668c-0.67,0.565-1.301,0.941-1.96,1.061C300.08,392.698,300.01,392.746,299.93,392.762"/>
		<path fill="#FFDD00" d="M274.04,437.178c-0.06-0.008-0.12-0.025-0.181-0.037c0.511,1.563,0.091,3.094-0.55,4.309
			c1.49-0.977,2.36-2.889,2.471-4.594c-0.091,0.041-0.181,0.08-0.28,0.115c0,0,0,0,0,0.002
			C275.09,437.182,274.57,437.25,274.04,437.178"/>
		<path fill="#FFDD00" d="M301.07,380.852c-1.04-1.002-2.021-1.948-2.261-2.849c-0.17-0.612-0.1-1.377-0.029-2.117
			c0.09-0.908,0.189-1.848-0.181-2.382c-0.27-0.38-0.67-0.625-1.14-0.688c-0.61-0.083-1.39,0.169-1.75,0.921
			c-0.06,0.116-0.18,0.186-0.31,0.179l-0.16-0.01c-2.15-0.127-4.17-0.247-5.801,1.232c-0.89,0.804-1.859,2.541-1.88,3.945
			c0,0.467,0.101,0.857,0.3,1.166c0.99-1.162,2.421-1.757,3.82-1.567c0.811,0.11,1.54,0.475,2.141,1.063
			c0.75-0.538,1.649-0.751,2.63-0.618c2.149,0.292,4.149,2.151,4.439,4.145c0.021,0.126-0.04,0.251-0.149,0.317
			c-2.17,1.298-4.521,2.616-7.32,4.108c2.62,0.013,5.57-1.259,8.2-2.395c0.56-0.239,1.1-0.473,1.62-0.685
			C303.91,383.589,302.46,382.198,301.07,380.852 M297.3,375.895c-0.05,0.113-0.149,0.189-0.27,0.199
			c-0.021,0.001-0.04,0-0.07-0.003c-0.09-0.012-0.229-0.17-0.229-0.17c-0.23-0.396-0.48-0.897-0.36-1.265
			c0.04-0.148,0.14-0.261,0.28-0.328c0.26-0.128,0.529-0.05,0.659,0.18C297.55,374.902,297.35,375.77,297.3,375.895z"/>
		<path fill="#FFDD00" d="M323.79,464.67c1.25,0.504,1.81,1.396,2.13,2.372c0.98,0.528,2.77,0.075,3.71-0.858
			c-1.93-0.478-2.41-2.014-2.84-3.381c-0.34-1.084-0.67-2.106-1.62-2.648c-0.07-0.039-0.12-0.1-0.14-0.17
			c-0.671-0.127-1.271-0.414-1.71-0.867c-0.12-0.124-0.12-0.323,0-0.446c0.13-0.123,0.33-0.121,0.449,0.005
			c0.66,0.67,1.791,0.915,2.94,0.643c1.04-0.242,1.89-0.842,2.351-1.614c-1.601,0.127-2.36-1.021-3.041-2.045
			c-0.489-0.737-0.949-1.433-1.68-1.761c-0.15-0.069-0.22-0.25-0.16-0.407c0.07-0.157,0.24-0.235,0.4-0.177
			c0.23,0.086,0.439,0.17,0.65,0.252c1.699,0.675,2.67,1.062,4.58-1.022c-1.19-0.506-1.75-1.698-2.291-2.856
			c-0.55-1.178-1.069-2.289-2.209-2.652c-0.171-0.053-0.261-0.23-0.211-0.395c0.061-0.168,0.23-0.26,0.4-0.205
			c0.53,0.168,0.939,0.457,1.29,0.816c1.2,0.881,3.149,0.485,4.399-0.474c-0.989-0.23-1.649-0.767-2.39-1.566
			c-2.41-2.622-1.729-5.694-1.08-8.666c0.23-1.048,0.46-2.134,0.561-3.176c0.37-4.208-0.591-6.729-3.54-9.14
			c0,0.301-0.04,0.492-0.07,0.552c-0.02,0.028-0.04,0.051-0.07,0.073c-0.21,0.256-0.52,0.408-0.939,0.453
			c-0.23,0.025-0.48,0.017-0.76-0.021c-1.891-0.255-4.711-1.852-6.471-3.257c0.71,0.962,1.271,2.059,1.75,3.134
			c0.021,0.043-0.04,0.195-0.08,0.125c-0.859-1.475-1.729-2.822-2.85-4.107c-0.25-0.105-0.5-0.211-0.73-0.318
			c0.82,0.992,1.391,2.318,1.851,3.378c0.01,0.015-0.011,0.075-0.03,0.048c-0.91-1.52-1.87-2.852-3.18-4.049
			c-0.021-0.018-0.03-0.049-0.04-0.084c-1.81-1.038-2.81-2.17-3.011-3.419c-0.17,0.01-0.35,0.01-0.529-0.015
			c-0.42-0.057-0.84-0.22-1.221-0.464c0.101,1.47-0.549,3.573-1.189,4.306c-0.07,0.092-0.189,0.129-0.311,0.103
			c-1.709-0.414-2.949-1.345-3.56-2.626c-0.27,1.021-0.81,1.859-1.59,2.491c0.04,0.051,0.07,0.11,0.08,0.18
			c0.08,1.147-0.271,2.142-1.01,2.872c-0.88,0.883-2.271,1.328-3.8,1.223c-0.011,0-0.021-0.002-0.021-0.002
			c-0.09-0.013-0.17-0.06-0.22-0.131c-0.051-0.074-0.07-0.172-0.051-0.263c0.19-0.695,0.041-1.331-0.199-1.974
			c-0.58,1.434-2.4,1.996-3.801,2.424c-0.319,0.098-0.619,0.191-0.879,0.287c0.319,0.339,0.659,0.654,1.01,0.964
			c0.01,0.013,0.01,0.065-0.021,0.051c-0.94-0.621-1.989-1.328-2.25-2.49c-0.239,0.003-0.46,0.03-0.649,0.081
			c1.01,2.221,2.859,4.02,5.18,4.844c0.01,0.006,0.01,0.047-0.01,0.043c-2.41-0.607-4.61-2.377-5.521-4.728c0-0.01,0-0.022,0-0.034
			c-0.31,0.148-0.56,0.371-0.77,0.646c1.96,3.572,5.59,5.865,9.7,5.978c0.01,0.001,0,0.019,0,0.019
			c-3.78,0.149-8.551-1.778-10.021-5.522c-0.101,0.183-0.2,0.38-0.31,0.587c1.56,4.643,6.41,5.514,11.55,6.432
			c4.61,0.823,9.36,1.681,12.28,5.25c-0.271-1.076-0.931-2.164-2.15-3.299c-0.471-0.384-0.9-0.806-1.43-1.123
			c-1.041-0.629-2.141-1.093-3.23-1.611c-0.02-0.008-0.01-0.055,0.01-0.053c1.65,0.242,4.25,1.021,5.301,2.533
			c1.659,1.608,2.279,3.149,2.289,4.666c0.03,0.078,0.021,0.159-0.01,0.232c-0.07,2.027-1.199,4.012-2.37,6.056
			c-1.479,2.595-3.01,5.278-2.729,8.42c0.029,0.319,0.08,0.677,0.13,1.052c0.271,1.785,0.61,4.153-1.26,5.039
			c1.59,0.57,3.46,0.018,4.35-1.389c0.03-0.034,0.05-0.059,0.08-0.082c-0.08-1.779-0.04-3.368,0.87-4.118
			c0.13-0.112,0.33-0.091,0.439,0.042c0.11,0.135,0.09,0.334-0.039,0.445c-0.82,0.671-0.7,2.613-0.591,4.49
			c0.12,1.969,0.24,4.004-0.67,5.008c-0.22,0.238-0.479,0.408-0.79,0.513c0.891,0.668,1.79,0.421,2.29,0.185
			c0.681-0.316,1.25-0.89,1.65-1.553c0-0.004,0-0.009,0-0.013c0.02-0.048,0.04-0.086,0.08-0.12c0.37-0.688,0.56-1.461,0.45-2.152
			c-0.03-0.172,0.09-0.334,0.26-0.362c0.17-0.025,0.33,0.091,0.359,0.263c0.141,0.864-0.09,1.811-0.56,2.637
			c-0.16,0.547-0.11,1.447-0.06,2.409c0.09,1.843,0.199,3.929-0.961,4.933c-0.459,0.396-1.08,0.582-1.859,0.557
			c0.92,0.791,1.99,1.064,2.96,0.729c1.11-0.384,1.86-1.475,1.89-2.777c0.01-0.174,0.15-0.311,0.33-0.307
			c0.17,0.008,0.311,0.15,0.301,0.324c-0.03,1.271-0.641,2.368-1.601,2.992c-0.24,0.622-0.83,0.905-1.32,1.13
			c-0.189,0.085-0.359,0.164-0.47,0.246c-0.02,0.009-0.03,0.015-0.05,0.021c-0.021,0.01-0.03,0.021-0.06,0.026
			c-0.021,0.007-0.051,0.007-0.08,0.007c-0.011,0-0.021,0.004-0.03,0.004c0-0.002,0-0.002-0.011-0.002l0,0
			c-0.68-0.082-1.33-0.297-1.959-0.507c-0.551-0.187-1.121-0.378-1.7-0.467c-0.511-0.08-1-0.084-1.511-0.091
			c-0.38-0.006-0.75-0.01-1.13-0.043c-0.53-0.043-0.76-0.176-0.989-0.305c-0.15-0.082-0.28-0.16-0.541-0.229
			c-1.709-0.466-3.379,0.4-4,1.51c-0.549,0.973-0.31,2.051,0.65,2.961c0.561,0.53,0.92,0.353,1.65-0.096
			c0.32-0.193,0.68-0.411,1.1-0.555c1.17-0.401,3.18-0.488,4.061,0.488c0.16-0.041,0.33,0.056,0.369,0.222
			c0.051,0.168-0.05,0.34-0.22,0.387c-0.79,0.213-1.819,0.694-2.819,1.158c-0.61,0.289-1.2,0.562-1.7,0.76
			c-0.83,0.321-1.431,1.034-1.61,1.802c0.01,0.071,0,0.146-0.04,0.207c-0.02,0.16-0.03,0.321-0.01,0.481
			c0.12,0.995,1.06,1.686,2.58,1.892c1.35,0.184,2.66-1.215,3.31-2.591c0.5-1.054,1.7-1.135,2.76-1.207
			c0.48-0.032,0.931-0.065,1.301-0.173c0.229-0.369,0.49-0.717,0.79-1.064c0.109-0.134,0.319-0.146,0.45-0.033
			c0.129,0.115,0.14,0.313,0.029,0.444c-0.97,1.118-1.51,2.126-1.59,4.249c0,0.1-0.05,0.194-0.14,0.249
			c-1.2,0.817-1.681,1.888-1.3,2.937c0.47,1.307,2.029,2.182,3.629,2.031c0.91-0.082,1.07-1.166,1.271-2.927
			c0.25-2.265,0.57-5.084,3.59-5.842c0.091-0.024,0.19-0.004,0.271,0.056c0.07,0.059,0.119,0.149,0.119,0.246
			c0.03,2.448,1.08,3.823,2.121,4.1c0.779,0.209,1.529-0.176,2.06-1.065c0.53-0.894,0.21-1.519-0.181-2.308
			c-0.27-0.534-0.549-1.088-0.56-1.76c-0.01-0.617,0.04-1.219,0.101-1.801c0.1-1.129,0.199-2.193-0.12-3.404
			c-0.04-0.17,0.06-0.344,0.229-0.387c0.13-0.033,0.271,0.025,0.34,0.135c0.01,0.008,0.021,0.008,0.021,0.015
			c0.71,0.555,2.229,0.307,3.19-0.289c-1.431-0.784-1.671-2.236-1.91-3.644c-0.24-1.49-0.48-2.898-2.09-3.553
			c-0.16-0.066-0.24-0.249-0.181-0.41C323.45,464.682,323.63,464.604,323.79,464.67 M313.74,438.237
			c-0.75-3.14-2.23-5.544-4.971-7.329c-0.01-0.003,0-0.02,0-0.018c2.61,1.498,4.931,4.072,5.16,7.2
			C313.939,438.213,313.79,438.469,313.74,438.237z M314.59,436.796c-0.66-2.522-2.38-4.748-4.7-5.987
			c-0.01-0.006,0-0.047,0.011-0.043c2.31,0.883,4.739,3.291,4.859,5.889C314.77,436.734,314.63,436.969,314.59,436.796z"/>
		<path fill="#FFDD00" d="M318.2,377.184c0.2-0.575-0.04-1.6-0.32-1.734c-0.06-0.025-0.17,0.034-0.32,0.208
			c-0.06,0.092-0.12,0.181-0.18,0.273c-0.101,0.137-0.29,0.171-0.43,0.078c-0.15-0.093-0.19-0.282-0.101-0.427
			c0.07-0.11,0.131-0.206,0.2-0.289c1.42-2.149,1.229-4.289-0.569-6.519c-0.451,1.554-1.671,2.604-2.86,3.623
			c-1.431,1.233-2.79,2.397-2.69,4.362c0.01,0.174-0.13,0.322-0.3,0.33c-0.17,0.008-0.32-0.126-0.33-0.299
			c-0.04-0.831,0.14-1.533,0.46-2.153c-0.08-0.028-0.15-0.085-0.18-0.165c-0.73-1.594-1.94-1.489-3.471-1.356
			c-0.399,0.034-0.81,0.07-1.22,0.072c-0.68,0.002-1.43-0.167-2.229-0.344c-1.66-0.37-3.391-0.754-4.4,0.489
			c-0.01,0.008-0.02,0.011-0.029,0.019c0.299,0.591,0.289,1.352,0.229,2.126c0,0.002,0,0.005,0,0.007
			c0.37,1.184,2.19,1.129,3.21,0.91c0.39-0.084,0.78-0.204,1.16-0.319c1.35-0.409,2.74-0.833,4.14,0.178
			c0.14,0.102,0.17,0.3,0.07,0.441c-0.101,0.142-0.3,0.172-0.44,0.071c-0.66-0.48-1.33-0.561-2.02-0.471
			c0.3,0.994-0.13,1.632-0.44,1.934c-0.52,0.514-1.35,0.752-2.11,0.651c0.83,0.508,2.03,0.624,2.931,0.497
			c0.17-0.023,0.33,0.097,0.35,0.269c0.03,0.173-0.09,0.333-0.26,0.356c-0.47,0.066-1.03,0.078-1.61-0.001
			c-0.77-0.104-1.55-0.366-2.14-0.871c-0.49-0.419-0.8-0.96-0.91-1.605c-0.03-0.119-0.05-0.244-0.06-0.374
			c-0.16-0.004-0.32-0.016-0.48-0.038c-0.57-0.078-1.1-0.273-1.49-0.629c-0.039,0.501-0.05,0.984,0.051,1.353
			c0.21,0.733,1.17,1.662,2.1,2.561c1.55,1.494,3.3,3.185,2.19,4.665c-0.04,0.045-0.091,0.081-0.141,0.103
			c-0.079,0.033-0.17,0.07-0.25,0.105c-0.01,0.005-0.01,0.014-0.02,0.02c-0.74,0.565-0.681,1.507-0.63,2.505
			c0.05,0.944,0.109,1.989-0.641,2.621c0.78,0.132,1.59-0.027,2.351-0.465c1.13-0.655,1.93-1.834,2.09-3.076
			c0.021-0.173,0.18-0.295,0.35-0.272h0.011c0.17,0.023,0.289,0.181,0.27,0.353c-0.09,0.663-0.34,1.306-0.7,1.884
			c0.05,0.059,0.091,0.139,0.091,0.23c-0.011,0.258,0,0.527,0.01,0.801c0.039,0.861,0.069,1.81-0.42,2.597
			c1.75-0.4,2.989-1.482,3.38-2.999c0.01-0.011,0.01-0.018,0.02-0.028c-0.3-0.799-0.55-1.549-0.41-2.141
			c0.04-0.169,0.22-0.269,0.38-0.235c0.17,0.04,0.271,0.21,0.23,0.38c-0.11,0.455,0.18,1.229,0.46,1.978
			c0.33,0.881,0.67,1.787,0.521,2.501c0.68-0.373,1.319-0.92,1.779-1.562c0.6-0.847,0.82-1.766,0.61-2.586
			c-0.04-0.169,0.069-0.339,0.239-0.381c0.16-0.042,0.341,0.061,0.381,0.23c0.17,0.69,0.09,1.427-0.2,2.145
			c0.06,0.042,0.1,0.101,0.12,0.171c0.13,0.473,0.57,0.588,0.82,0.615c0.529,0.057,1.109-0.164,1.399-0.519
			c-2.6-3.453-0.56-7.156,1.08-10.142C317.42,378.911,317.93,377.98,318.2,377.184 M313.75,376.662
			c0.08,0.178-0.11,1.136-0.311,0.873c-2.14-2.722,2.351-4.908,2.98-7.09c0.01-0.032,0.02-0.004,0.02,0.017
			C315.99,372.486,312.81,374.54,313.75,376.662z"/>
		<path fill="#FFDD00" d="M316.23,390.49c-0.431,0.481-1.181,0.771-1.9,0.694c-0.36-0.036-0.66-0.158-0.891-0.346
			c-0.1,1.245,0.4,2.82,1.711,3.348c0.09,0.036,0.149,0.108,0.18,0.197c0.029,0.09,0.01,0.187-0.04,0.267
			c-0.48,0.756-1.38,1.261-2.3,1.286c-0.58,0.015-1.101-0.156-1.5-0.49c-0.45,1.399-0.53,3.55,0.97,4.583
			c0.069,0.048,0.12,0.121,0.13,0.203c0.02,0.084,0,0.168-0.05,0.238c-0.54,0.772-1.3,1.223-2.14,1.266
			c-0.7,0.037-1.41-0.219-2.011-0.715c-0.189,1.141-0.02,2.424,0.82,2.965c0.05,0.031,0.08,0.074,0.1,0.121
			c3.431-2.547,5.771-7.352,6.82-11.034c0.2-0.709,0.37-1.395,0.53-2.071L316.23,390.49"/>
	</g>
</g>
</svg>
